<?xml version="1.0" encoding="UTF-8" standalone="no"?>
<svg
   xmlns:dc="http://purl.org/dc/elements/1.1/"
   xmlns:cc="http://creativecommons.org/ns#"
   xmlns:rdf="http://www.w3.org/1999/02/22-rdf-syntax-ns#"
   xmlns:svg="http://www.w3.org/2000/svg"
   xmlns="http://www.w3.org/2000/svg"
   xmlns:sodipodi="http://sodipodi.sourceforge.net/DTD/sodipodi-0.dtd"
   width="127mm"
   height="50mm"
   viewBox="0 0 127 50"
   version="1.1"
   id="svg8"
   sodipodi:docname="clover.svg">
<style type="text/css">
.stroke-scroll {
  stroke-dasharray: 100;
  stroke-dashoffset: 100;
  animation: roll 5s linear infinite;
}

@keyframes roll {
  from {
    stroke-dashoffset: 100;
  }
  to {
    stroke-dashoffset: 0;
  }
}
</style>
    <path class="stroke-scroll"
       style="fill:none;stroke:#ffffff;stroke-width:0.152;stroke-linecap:butt;stroke-linejoin:miter;stroke-miterlimit:4;stroke-dasharray:4, 4;stroke-dashoffset:0;stroke-opacity:1"
       d="M -0.194551,21.003816 57.21633,20.845997 c 0,0 7.19193,0.132723 7.1282,-10.231541 0,0 0.8703,-6.0920141 -6.96229,-6.9623001 -3.9163,-0.435144 -8.88293,2.2490794 -7.88698,7.9957671 0,0 1.89093,5.260646 6.63792,6.15876 5.64069,1.067199 13.66081,0.398112 18.7668,-0.999159 4.95516,-0.811551 6.98868,-1.819764 7.39743,-5.938166 0.36542,-3.6817977 -1.5677,-6.9605941 -7.42383,-6.9095091 -5.55321,0.04844 -6.70289,2.8657634 -6.70289,6.7820581 0,3.916294 0.18402,10.719443 0.61915,17.246601 0.43515,6.527157 2.5158,6.860695 6.52716,6.799398 3.45476,-0.05279 6.73346,-1.247737 6.59276,-6.184012 -0.1757,-6.164169 -2.75565,-7.419312 -7.38387,-6.830322 -7.35093,0.93549 -15.2447,-0.514331 -18.2907,0.355957 -3.04601,0.870288 -6.16087,1.112704 -6.23681,7.054297 -0.0571,4.467925 3.727,5.708337 7.12896,5.554489 4.7817,-0.216243 6.68434,-2.241675 6.63462,-5.722471 -0.10879,-7.615017 -2.24398,-9.079373 -6.59542,-9.949661 -2.17572,-0.435144 -14.40666,0.267222 -57.41507,0.175031"
       id="path887"
       sodipodi:nodetypes="ccsscscssssssssssssc" />
</svg>
