<svg id="svg" version="1.1" xmlns="http://www.w3.org/2000/svg" xmlns:xlink="http://www.w3.org/1999/xlink" width="400" height="400" viewBox="0, 0, 400,400"><g id="svgg"><path id="path0" d="M0.000 49.033 C 0.000 98.079,0.083 101.144,1.280 96.523 C 1.454 95.851,1.868 95.076,2.198 94.801 C 2.529 94.527,2.800 94.078,2.800 93.804 C 2.800 93.257,6.134 86.482,6.771 85.734 C 6.989 85.478,7.283 84.810,7.423 84.251 C 7.564 83.691,7.919 83.033,8.214 82.789 C 8.508 82.545,8.862 81.830,9.000 81.200 C 9.138 80.570,9.498 79.850,9.800 79.600 C 10.102 79.350,10.462 78.630,10.600 78.000 C 10.738 77.370,11.098 76.650,11.400 76.400 C 11.702 76.150,12.062 75.430,12.200 74.800 C 12.338 74.170,12.698 73.450,13.000 73.200 C 13.302 72.950,13.662 72.230,13.800 71.600 C 13.938 70.970,14.298 70.250,14.600 70.000 C 14.902 69.750,15.262 69.030,15.400 68.400 C 15.538 67.770,15.910 67.041,16.226 66.779 C 16.542 66.517,16.800 66.072,16.800 65.792 C 16.800 65.323,18.853 61.161,19.554 60.209 C 19.720 59.984,20.367 58.633,20.992 57.207 C 21.617 55.782,22.369 54.374,22.664 54.079 C 22.959 53.784,23.200 53.269,23.200 52.935 C 23.200 52.600,23.560 51.869,24.000 51.309 C 24.440 50.750,24.800 49.978,24.800 49.595 C 24.800 49.212,25.058 48.683,25.374 48.421 C 25.690 48.159,26.062 47.430,26.200 46.800 C 26.338 46.170,26.698 45.450,27.000 45.200 C 27.302 44.950,27.662 44.230,27.800 43.600 C 27.938 42.970,28.310 42.241,28.626 41.979 C 28.942 41.717,29.200 41.188,29.200 40.805 C 29.200 40.422,29.535 39.679,29.945 39.154 C 30.355 38.629,30.826 37.750,30.992 37.200 C 31.159 36.650,31.529 35.930,31.816 35.600 C 32.103 35.270,32.459 34.512,32.608 33.916 C 32.757 33.320,33.131 32.623,33.439 32.367 C 33.748 32.111,34.000 31.588,34.000 31.205 C 34.000 30.822,34.360 30.050,34.800 29.491 C 35.240 28.931,35.600 28.215,35.600 27.898 C 35.600 27.581,35.949 26.920,36.375 26.428 C 36.802 25.937,37.266 25.009,37.407 24.367 C 37.548 23.725,37.801 23.200,37.968 23.200 C 38.136 23.200,38.489 22.480,38.753 21.600 C 39.016 20.720,39.376 20.000,39.553 20.000 C 39.729 20.000,40.089 19.280,40.353 18.400 C 40.616 17.520,40.976 16.800,41.153 16.800 C 41.329 16.800,41.689 16.080,41.953 15.200 C 42.216 14.320,42.591 13.600,42.784 13.600 C 42.978 13.600,43.252 13.072,43.394 12.428 C 43.536 11.783,43.898 11.050,44.200 10.800 C 44.502 10.550,44.862 9.830,45.000 9.200 C 45.138 8.570,45.510 7.841,45.826 7.579 C 46.142 7.317,46.400 6.788,46.400 6.405 C 46.400 6.022,46.749 5.264,47.175 4.722 C 47.602 4.180,48.075 3.242,48.227 2.636 C 48.379 2.031,48.750 1.441,49.051 1.325 C 49.353 1.209,49.600 0.864,49.600 0.557 C 49.600 0.087,45.731 0.000,24.800 0.000 L 0.000 0.000 0.000 49.033 M52.000 0.368 C 52.000 0.727,99.060 48.000,99.418 48.000 C 99.518 48.000,99.600 37.200,99.600 24.000 L 99.600 0.000 75.800 0.000 C 61.602 0.000,52.000 0.148,52.000 0.368 M303.200 0.350 C 303.200 0.626,317.076 7.873,322.290 10.321 C 322.901 10.607,323.670 11.014,324.000 11.224 C 324.330 11.434,325.050 11.804,325.600 12.046 C 326.150 12.288,326.870 12.647,327.200 12.844 C 327.530 13.041,328.250 13.381,328.800 13.601 C 329.350 13.820,330.070 14.180,330.400 14.401 C 330.730 14.621,331.450 14.981,332.000 15.201 C 332.550 15.420,333.270 15.781,333.600 16.002 C 333.930 16.224,334.470 16.504,334.800 16.624 C 335.130 16.745,335.850 17.087,336.400 17.383 C 336.950 17.680,339.110 18.753,341.200 19.767 C 343.290 20.781,345.270 21.790,345.600 22.008 C 345.930 22.227,346.650 22.604,347.200 22.846 C 347.750 23.088,348.470 23.448,348.800 23.646 C 349.130 23.844,349.850 24.204,350.400 24.446 C 350.950 24.688,351.670 25.047,352.000 25.244 C 352.330 25.441,353.050 25.781,353.600 26.001 C 354.150 26.220,354.870 26.581,355.200 26.803 C 355.530 27.024,356.250 27.404,356.800 27.646 C 357.350 27.888,358.070 28.247,358.400 28.444 C 358.730 28.641,359.450 28.981,360.000 29.201 C 360.550 29.420,361.270 29.767,361.600 29.973 C 361.930 30.178,367.510 32.985,374.000 36.212 C 380.490 39.438,386.070 42.243,386.400 42.447 C 386.730 42.650,387.540 43.085,388.200 43.414 C 388.860 43.743,389.670 44.183,390.000 44.393 C 390.330 44.603,391.770 45.322,393.200 45.993 C 394.630 46.663,396.070 47.377,396.400 47.580 C 397.076 47.996,399.649 49.200,399.861 49.200 C 399.938 49.200,400.000 38.130,400.000 24.600 L 400.000 0.000 351.600 0.000 C 324.244 0.000,303.200 0.152,303.200 0.350 M300.400 51.600 L 300.400 99.600 324.400 99.600 C 343.333 99.600,348.400 99.494,348.401 99.100 C 348.402 98.708,338.227 77.782,336.780 75.200 C 336.595 74.870,333.806 69.290,330.581 62.800 C 327.357 56.310,324.569 50.730,324.386 50.400 C 323.011 47.924,312.395 26.411,312.197 25.700 C 312.059 25.205,311.792 24.800,311.604 24.800 C 311.416 24.800,311.042 24.125,310.773 23.300 C 310.504 22.475,310.161 21.710,310.011 21.600 C 309.861 21.490,307.773 17.401,305.369 12.513 C 302.966 7.625,300.865 3.620,300.700 3.613 C 300.535 3.606,300.400 25.200,300.400 51.600 M150.587 50.900 C 150.484 51.175,150.354 62.380,150.300 75.800 L 150.200 100.200 125.303 100.303 L 100.406 100.406 100.303 125.303 L 100.200 150.200 75.400 150.400 L 50.600 150.600 50.497 175.300 C 50.429 191.693,50.529 200.000,50.797 200.000 C 51.019 200.000,51.200 199.832,51.200 199.627 C 51.200 198.423,99.363 151.135,99.875 151.835 C 100.313 152.434,100.456 214.095,100.102 249.600 C 100.099 249.930,100.168 261.315,100.257 274.900 L 100.418 299.600 125.129 299.600 C 142.466 299.600,149.970 299.730,150.277 300.037 C 150.593 300.353,150.940 300.353,151.531 300.037 C 152.113 299.725,173.440 299.602,225.833 299.608 C 266.250 299.612,299.385 299.548,299.467 299.467 C 299.548 299.385,299.612 266.250,299.608 225.833 C 299.602 173.440,299.725 152.113,300.037 151.531 C 300.353 150.940,300.353 150.593,300.037 150.277 C 299.730 149.970,299.600 142.466,299.600 125.129 L 299.600 100.418 274.900 100.257 C 261.315 100.168,249.930 100.099,249.600 100.102 C 214.095 100.456,152.434 100.313,151.835 99.875 C 151.135 99.363,198.423 51.200,199.627 51.200 C 199.832 51.200,200.000 51.020,200.000 50.800 C 200.000 50.158,150.828 50.257,150.587 50.900 M201.511 50.622 C 201.386 50.748,212.109 61.694,225.342 74.947 C 241.346 90.977,249.502 98.879,249.703 98.552 C 249.870 98.281,249.960 87.381,249.903 74.330 L 249.800 50.600 225.770 50.497 C 212.553 50.440,201.637 50.497,201.511 50.622 M98.597 52.405 C 98.360 52.789,93.515 55.200,92.980 55.200 C 92.840 55.200,92.269 55.560,91.709 56.000 C 91.150 56.440,90.430 56.800,90.109 56.800 C 89.789 56.800,89.069 57.160,88.509 57.600 C 87.950 58.040,87.178 58.400,86.795 58.400 C 86.412 58.400,85.883 58.658,85.621 58.974 C 85.359 59.290,84.617 59.664,83.972 59.806 C 83.328 59.948,82.800 60.222,82.800 60.416 C 82.800 60.609,82.078 60.984,81.195 61.249 C 80.313 61.513,79.391 61.970,79.146 62.265 C 78.902 62.559,78.388 62.800,78.005 62.800 C 77.622 62.800,76.850 63.160,76.291 63.600 C 75.731 64.040,74.998 64.400,74.661 64.400 C 74.323 64.400,73.941 64.571,73.812 64.781 C 73.683 64.990,72.367 65.727,70.888 66.419 C 69.410 67.111,67.930 67.841,67.600 68.042 C 67.270 68.242,66.550 68.604,66.000 68.846 C 65.450 69.088,64.730 69.448,64.400 69.646 C 64.070 69.844,63.350 70.204,62.800 70.446 C 62.250 70.688,61.530 71.047,61.200 71.244 C 60.870 71.441,60.150 71.781,59.600 72.001 C 59.050 72.220,58.330 72.580,58.000 72.801 C 57.670 73.021,56.950 73.381,56.400 73.601 C 55.850 73.820,55.130 74.181,54.800 74.402 C 54.470 74.624,53.930 74.909,53.600 75.035 C 52.656 75.397,49.458 76.972,48.400 77.595 C 48.070 77.790,46.810 78.422,45.600 79.000 C 44.390 79.578,43.040 80.249,42.600 80.492 C 42.160 80.735,40.720 81.467,39.400 82.120 C 38.080 82.773,36.730 83.465,36.400 83.657 C 36.070 83.849,35.350 84.204,34.800 84.446 C 34.250 84.688,33.530 85.048,33.200 85.246 C 32.870 85.444,32.150 85.804,31.600 86.046 C 31.050 86.288,30.330 86.651,30.000 86.854 C 29.670 87.057,29.128 87.318,28.796 87.433 C 28.463 87.549,27.023 88.254,25.596 89.000 C 22.093 90.832,19.209 92.265,18.000 92.776 C 17.450 93.008,16.730 93.379,16.400 93.599 C 16.070 93.820,15.350 94.182,14.800 94.403 C 14.250 94.625,12.900 95.333,11.800 95.977 C 10.700 96.620,9.558 97.159,9.263 97.173 C 8.968 97.188,8.269 97.560,7.709 98.000 C 7.150 98.440,6.367 98.800,5.970 98.800 C 5.572 98.800,5.136 98.980,5.000 99.200 C 4.836 99.466,20.663 99.600,52.176 99.600 L 99.600 99.600 99.600 75.800 C 99.600 53.684,99.484 50.970,98.597 52.405 M376.393 75.786 C 363.752 88.428,353.347 98.958,353.271 99.186 C 353.177 99.468,360.583 99.600,376.567 99.600 L 400.000 99.600 400.000 76.200 C 400.000 63.330,399.860 52.800,399.689 52.800 C 399.517 52.800,389.035 63.144,376.393 75.786 M176.320 125.280 C 176.683 125.643,176.800 131.746,176.800 150.298 L 176.800 174.836 175.818 175.818 L 174.836 176.800 150.298 176.800 C 131.746 176.800,125.643 176.683,125.280 176.320 C 124.917 175.957,124.800 169.636,124.800 150.320 L 124.800 124.800 150.320 124.800 C 169.636 124.800,175.957 124.917,176.320 125.280 M276.320 125.280 C 276.683 125.643,276.800 131.746,276.800 150.298 L 276.800 174.836 275.818 175.818 L 274.836 176.800 250.298 176.800 C 231.746 176.800,225.643 176.683,225.280 176.320 C 224.917 175.957,224.800 169.636,224.800 150.320 L 224.800 124.800 250.320 124.800 C 269.636 124.800,275.957 124.917,276.320 125.280 M301.511 150.622 C 301.386 150.748,312.109 161.694,325.342 174.947 C 341.346 190.977,349.502 198.879,349.703 198.552 C 349.870 198.281,349.960 187.381,349.903 174.330 L 349.800 150.600 325.770 150.497 C 312.553 150.440,301.637 150.497,301.511 150.622 M50.583 201.703 C 50.478 201.976,50.439 212.910,50.496 226.000 L 50.600 249.800 74.330 249.903 C 87.381 249.960,98.281 249.870,98.552 249.703 C 98.879 249.502,90.964 241.333,74.908 225.303 C 61.329 211.745,50.690 201.423,50.583 201.703 M325.788 225.571 C 312.825 238.535,302.155 249.336,302.075 249.574 C 301.973 249.881,308.858 249.976,325.866 249.903 L 349.800 249.800 349.903 225.900 C 349.960 212.755,349.860 202.000,349.682 202.000 C 349.503 202.000,338.751 212.607,325.788 225.571 M176.320 225.280 C 176.683 225.643,176.800 231.746,176.800 250.298 L 176.800 274.836 175.818 275.818 L 174.836 276.800 150.298 276.800 C 131.746 276.800,125.643 276.683,125.280 276.320 C 124.917 275.957,124.800 269.636,124.800 250.320 L 124.800 224.800 150.320 224.800 C 169.636 224.800,175.957 224.917,176.320 225.280 M276.320 225.280 C 276.683 225.643,276.800 231.746,276.800 250.298 L 276.800 274.836 275.818 275.818 L 274.836 276.800 250.298 276.800 C 231.746 276.800,225.643 276.683,225.280 276.320 C 224.917 275.957,224.800 269.636,224.800 250.320 L 224.800 224.800 250.320 224.800 C 269.636 224.800,275.957 224.917,276.320 225.280 M0.000 324.800 C 0.000 338.220,0.112 349.200,0.248 349.200 C 0.745 349.200,48.772 300.905,48.523 300.656 C 48.382 300.515,37.407 300.400,24.133 300.400 L 0.000 300.400 0.000 324.800 M52.000 300.689 C 52.000 301.114,57.322 311.764,57.654 312.004 C 57.809 312.116,58.059 312.694,58.208 313.288 C 58.357 313.881,58.731 314.577,59.039 314.833 C 59.348 315.089,59.600 315.612,59.600 315.995 C 59.600 316.378,59.949 317.136,60.375 317.678 C 60.802 318.220,61.269 319.137,61.414 319.715 C 61.560 320.294,61.931 320.977,62.239 321.233 C 62.548 321.489,62.800 322.012,62.800 322.395 C 62.800 322.778,63.135 323.521,63.545 324.046 C 63.955 324.571,64.426 325.450,64.592 326.000 C 64.759 326.550,65.107 327.270,65.367 327.600 C 65.627 327.930,66.272 329.190,66.800 330.400 C 67.328 331.610,67.963 332.870,68.211 333.200 C 68.458 333.530,69.162 334.880,69.775 336.200 C 70.388 337.520,71.035 338.870,71.213 339.200 C 71.392 339.530,72.369 341.510,73.386 343.600 C 74.403 345.690,75.478 347.850,75.775 348.400 C 76.072 348.950,78.958 354.710,82.190 361.200 C 85.421 367.690,88.226 373.270,88.423 373.600 C 88.620 373.930,90.878 378.389,93.441 383.508 C 96.005 388.627,98.259 392.913,98.451 393.031 C 98.643 393.150,98.800 393.586,98.800 394.000 C 98.800 394.414,98.980 394.864,99.200 395.000 C 99.466 395.164,99.600 379.337,99.600 347.824 L 99.600 300.400 75.800 300.400 C 62.710 300.400,52.000 300.530,52.000 300.689 M300.400 324.776 C 300.400 346.687,300.566 351.030,301.326 349.049 C 301.441 348.749,302.031 348.379,302.636 348.227 C 303.242 348.075,304.180 347.602,304.722 347.175 C 305.264 346.749,306.022 346.400,306.405 346.400 C 306.788 346.400,307.317 346.142,307.579 345.826 C 307.841 345.510,308.581 345.136,309.223 344.995 C 309.865 344.854,310.495 344.570,310.623 344.363 C 310.750 344.157,311.427 343.724,312.127 343.402 C 312.827 343.080,313.670 342.644,314.000 342.435 C 314.330 342.225,317.930 340.413,322.000 338.409 C 326.070 336.405,329.670 334.613,330.000 334.427 C 330.330 334.241,331.639 333.596,332.909 332.993 C 334.178 332.389,335.305 331.753,335.413 331.579 C 335.521 331.404,336.135 331.146,336.777 331.005 C 337.419 330.864,338.150 330.502,338.400 330.200 C 338.650 329.898,339.370 329.538,340.000 329.400 C 340.630 329.262,341.350 328.902,341.600 328.600 C 341.850 328.298,342.570 327.938,343.200 327.800 C 343.830 327.662,344.550 327.302,344.800 327.000 C 345.050 326.698,345.770 326.338,346.400 326.200 C 347.030 326.062,347.759 325.690,348.021 325.374 C 348.283 325.058,348.812 324.800,349.195 324.800 C 349.578 324.800,350.321 324.465,350.846 324.055 C 351.371 323.645,352.250 323.171,352.800 323.001 C 353.350 322.831,353.890 322.573,354.000 322.427 C 354.110 322.281,358.250 320.130,363.200 317.647 C 368.150 315.164,372.470 312.985,372.800 312.805 C 373.130 312.625,374.570 311.914,376.000 311.225 C 377.430 310.536,378.870 309.804,379.200 309.599 C 379.530 309.394,380.970 308.678,382.400 308.007 C 384.921 306.826,385.298 306.635,387.000 305.675 C 388.564 304.793,392.719 302.800,392.994 302.800 C 393.148 302.800,393.731 302.440,394.291 302.000 C 394.850 301.560,395.654 301.200,396.078 301.200 C 396.501 301.200,396.736 301.020,396.600 300.800 C 396.437 300.537,379.929 300.400,348.376 300.400 L 300.400 300.400 300.400 324.776 M150.583 301.703 C 150.478 301.976,150.439 312.910,150.496 326.000 L 150.600 349.800 174.330 349.903 C 187.381 349.960,198.281 349.870,198.552 349.703 C 198.879 349.502,190.964 341.333,174.908 325.303 C 161.329 311.745,150.690 301.423,150.583 301.703 M225.788 325.571 C 212.825 338.535,202.155 349.336,202.075 349.574 C 201.973 349.881,208.858 349.976,225.866 349.903 L 249.800 349.800 249.903 325.900 C 249.960 312.755,249.860 302.000,249.682 302.000 C 249.503 302.000,238.751 312.607,225.788 325.571 M399.001 305.700 C 398.673 306.863,395.119 314.137,394.747 314.404 C 394.591 314.516,394.341 315.094,394.192 315.688 C 394.043 316.281,393.681 316.967,393.386 317.211 C 393.092 317.455,392.738 318.170,392.600 318.800 C 392.462 319.430,392.090 320.159,391.774 320.421 C 391.458 320.683,391.200 321.212,391.200 321.595 C 391.200 321.978,390.873 322.721,390.473 323.246 C 390.073 323.771,389.511 324.785,389.224 325.500 C 388.938 326.215,388.565 326.800,388.396 326.800 C 388.227 326.800,387.974 327.412,387.834 328.160 C 387.694 328.908,387.314 329.740,386.989 330.009 C 386.665 330.278,386.400 330.812,386.400 331.195 C 386.400 331.578,386.040 332.350,385.600 332.909 C 385.160 333.469,384.800 334.189,384.800 334.509 C 384.800 334.830,384.440 335.550,384.000 336.109 C 383.560 336.669,383.200 337.306,383.200 337.526 C 383.200 338.013,381.131 342.118,380.741 342.404 C 380.588 342.516,380.341 343.094,380.192 343.688 C 380.043 344.281,379.681 344.967,379.386 345.211 C 379.092 345.455,378.738 346.170,378.600 346.800 C 378.462 347.430,378.102 348.150,377.800 348.400 C 377.498 348.650,377.133 349.395,376.988 350.055 C 376.843 350.714,376.472 351.351,376.162 351.470 C 375.853 351.588,375.600 351.880,375.600 352.117 C 375.600 352.354,375.249 353.279,374.821 354.174 C 374.392 355.068,373.853 356.250,373.622 356.800 C 373.391 357.350,373.021 358.070,372.801 358.400 C 372.580 358.730,372.220 359.450,372.001 360.000 C 371.781 360.550,371.439 361.270,371.240 361.600 C 371.040 361.930,370.314 363.370,369.625 364.800 C 368.936 366.230,368.219 367.670,368.031 368.000 C 367.843 368.330,367.180 369.680,366.557 371.000 C 365.934 372.320,365.194 373.638,364.912 373.929 C 364.630 374.219,364.400 374.776,364.400 375.167 C 364.400 375.557,364.040 376.202,363.600 376.600 C 363.160 376.998,362.800 377.724,362.800 378.213 C 362.800 378.702,362.542 379.317,362.226 379.579 C 361.910 379.841,361.538 380.570,361.400 381.200 C 361.262 381.830,360.902 382.550,360.600 382.800 C 360.298 383.050,359.938 383.770,359.800 384.400 C 359.662 385.030,359.290 385.759,358.974 386.021 C 358.658 386.283,358.400 386.812,358.400 387.195 C 358.400 387.578,358.040 388.350,357.600 388.909 C 357.160 389.469,356.800 390.189,356.800 390.509 C 356.800 390.830,356.451 391.536,356.025 392.078 C 355.598 392.620,355.131 393.537,354.986 394.115 C 354.840 394.694,354.469 395.377,354.161 395.633 C 353.852 395.889,353.600 396.412,353.600 396.795 C 353.600 397.178,353.240 397.950,352.800 398.509 C 352.360 399.069,352.000 399.633,352.000 399.763 C 352.000 399.893,362.800 400.000,376.000 400.000 L 400.000 400.000 400.000 352.400 C 400.000 308.129,399.881 302.571,399.001 305.700 M0.000 376.000 L 0.000 400.000 48.200 400.000 C 93.939 400.000,99.834 399.867,95.192 398.938 C 94.527 398.805,93.899 398.559,93.795 398.392 C 93.691 398.224,92.390 397.520,90.903 396.828 C 89.416 396.135,87.930 395.395,87.600 395.183 C 87.270 394.971,86.550 394.619,86.000 394.399 C 85.450 394.180,84.730 393.831,84.400 393.623 C 84.070 393.415,82.509 392.611,80.932 391.835 C 79.354 391.060,77.948 390.240,77.808 390.013 C 77.668 389.786,77.228 389.600,76.830 389.600 C 76.433 389.600,75.679 389.263,75.154 388.852 C 74.629 388.441,73.627 387.979,72.928 387.826 C 72.228 387.674,71.450 387.302,71.200 387.000 C 70.950 386.698,70.219 386.336,69.577 386.195 C 68.935 386.054,68.321 385.796,68.213 385.621 C 68.105 385.447,66.978 384.811,65.709 384.207 C 64.439 383.604,63.130 382.956,62.800 382.767 C 61.710 382.142,54.214 378.516,53.500 378.268 C 53.115 378.134,52.800 377.839,52.800 377.613 C 52.800 377.386,52.464 377.200,52.054 377.200 C 51.644 377.200,50.850 376.840,50.291 376.400 C 49.731 375.960,49.134 375.600,48.963 375.600 C 48.792 375.600,47.921 375.249,47.026 374.821 C 46.132 374.392,44.950 373.849,44.400 373.614 C 43.850 373.379,42.414 372.650,41.208 371.993 C 40.002 371.337,38.800 370.800,38.536 370.800 C 38.273 370.800,37.819 370.569,37.529 370.287 C 37.238 370.004,34.300 368.441,31.000 366.813 C 27.700 365.185,24.940 363.706,24.867 363.526 C 24.793 363.347,24.541 363.200,24.305 363.200 C 23.845 363.200,19.790 361.420,18.800 360.784 C 18.470 360.572,17.750 360.219,17.200 359.999 C 16.650 359.780,15.930 359.420,15.600 359.199 C 15.270 358.979,14.550 358.619,14.000 358.399 C 13.450 358.180,12.730 357.820,12.400 357.599 C 12.070 357.379,11.350 357.019,10.800 356.799 C 10.250 356.580,9.530 356.232,9.200 356.027 C 7.280 354.832,1.292 351.991,0.700 351.995 C 0.041 352.000,0.000 353.411,0.000 376.000 M300.400 376.000 L 300.400 400.000 324.200 400.000 C 339.045 400.000,348.000 399.856,348.000 399.618 C 348.000 399.258,300.926 352.000,300.568 352.000 C 300.475 352.000,300.400 362.800,300.400 376.000 " stroke="none" fill="#bcbc84" fill-rule="evenodd"></path><path id="path1" d="M100.387 24.300 C 100.377 43.379,100.265 48.744,99.864 49.272 C 99.412 49.866,96.546 47.134,75.190 25.767 C 61.901 12.470,50.841 1.651,50.614 1.725 C 50.386 1.798,47.631 6.975,44.491 13.229 C 41.350 19.483,38.626 24.870,38.436 25.200 C 38.246 25.530,36.970 28.140,35.600 31.000 C 34.230 33.860,32.956 36.470,32.769 36.800 C 32.582 37.130,31.050 40.190,29.364 43.600 C 27.679 47.010,26.142 49.860,25.950 49.933 C 25.757 50.007,25.600 50.297,25.600 50.578 C 25.600 51.001,21.546 59.562,20.380 61.600 C 20.192 61.930,18.645 64.990,16.944 68.400 C 15.242 71.810,13.614 74.838,13.325 75.129 C 13.036 75.419,12.800 75.903,12.800 76.204 C 12.800 76.505,11.819 78.697,10.619 81.075 C 9.420 83.454,8.249 85.850,8.016 86.400 C 7.783 86.950,6.694 89.090,5.596 91.155 C 4.498 93.221,3.600 95.097,3.600 95.324 C 3.600 95.551,3.309 96.059,2.953 96.452 C 2.597 96.845,2.185 97.760,2.038 98.484 C 1.845 99.433,1.523 99.836,0.885 99.928 L 0.000 100.056 0.000 199.816 L 0.000 299.577 25.500 299.689 C 39.525 299.750,61.935 299.751,75.300 299.691 L 99.600 299.582 99.600 275.791 L 99.600 252.000 75.300 251.994 C 60.686 251.990,50.761 251.837,50.400 251.608 C 49.617 251.114,49.267 151.083,50.044 150.147 C 50.419 149.695,54.782 149.600,75.049 149.600 L 99.600 149.600 99.600 125.000 L 99.600 100.400 52.100 100.395 C 25.975 100.392,4.195 100.281,3.700 100.148 C 2.465 99.817,2.570 98.874,3.900 98.349 C 4.505 98.110,5.270 97.761,5.600 97.574 C 7.772 96.341,11.006 94.800,11.421 94.800 C 11.692 94.800,12.012 94.547,12.130 94.238 C 12.249 93.928,12.886 93.557,13.545 93.412 C 14.205 93.267,14.959 92.890,15.221 92.574 C 15.483 92.258,15.863 92.000,16.066 92.000 C 16.393 92.000,20.430 90.132,22.000 89.254 C 22.330 89.069,23.500 88.505,24.600 88.000 C 25.700 87.495,26.870 86.937,27.200 86.759 C 27.530 86.582,29.690 85.512,32.000 84.381 C 34.310 83.250,36.470 82.158,36.800 81.954 C 37.130 81.751,37.973 81.320,38.673 80.998 C 39.373 80.676,40.050 80.243,40.177 80.037 C 40.305 79.830,40.982 79.536,41.682 79.382 C 42.382 79.228,43.212 78.846,43.526 78.532 C 43.840 78.218,44.603 77.859,45.223 77.735 C 45.842 77.612,46.441 77.270,46.553 76.977 C 46.666 76.684,47.385 76.327,48.151 76.183 C 48.918 76.039,49.633 75.692,49.740 75.411 C 49.848 75.131,50.581 74.780,51.368 74.632 C 52.156 74.485,52.800 74.219,52.800 74.043 C 52.800 73.866,53.475 73.430,54.300 73.074 C 55.125 72.718,56.070 72.254,56.400 72.042 C 56.730 71.831,60.150 70.096,64.000 68.189 C 67.850 66.281,71.450 64.471,72.000 64.166 C 72.550 63.861,73.321 63.609,73.713 63.606 C 74.104 63.603,74.524 63.341,74.646 63.024 C 74.767 62.708,75.437 62.324,76.133 62.172 C 76.830 62.020,77.829 61.559,78.354 61.148 C 78.879 60.737,79.629 60.400,80.021 60.400 C 80.413 60.400,80.793 60.237,80.867 60.038 C 80.940 59.839,82.350 59.026,84.000 58.232 C 85.650 57.438,87.270 56.611,87.600 56.394 C 87.930 56.177,88.650 55.820,89.200 55.601 C 89.750 55.381,90.470 55.032,90.800 54.824 C 93.675 53.013,99.276 50.765,99.810 51.208 C 100.318 51.630,100.400 55.031,100.400 75.649 L 100.400 99.600 125.000 99.600 L 149.600 99.600 149.600 75.049 C 149.600 54.782,149.695 50.419,150.147 50.044 C 151.083 49.267,251.114 49.617,251.608 50.400 C 251.837 50.761,251.990 60.686,251.994 75.300 L 252.000 99.600 275.795 99.600 L 299.591 99.600 299.702 50.700 C 299.764 23.805,299.967 1.395,300.154 0.900 L 300.493 0.000 200.447 0.000 L 100.400 0.000 100.387 24.300 M302.000 2.368 C 302.000 2.570,302.707 4.145,303.571 5.868 C 304.435 7.590,305.245 9.270,305.371 9.600 C 305.497 9.930,306.230 11.340,307.000 12.734 C 307.770 14.127,308.400 15.500,308.400 15.785 C 308.400 16.069,308.658 16.517,308.974 16.779 C 309.290 17.041,309.662 17.770,309.800 18.400 C 309.938 19.030,310.298 19.750,310.600 20.000 C 310.902 20.250,311.262 20.970,311.400 21.600 C 311.538 22.230,311.898 22.950,312.200 23.200 C 312.502 23.450,312.862 24.170,313.000 24.800 C 313.138 25.430,313.492 26.145,313.786 26.389 C 314.081 26.633,314.438 27.297,314.581 27.865 C 314.723 28.432,315.100 29.157,315.419 29.476 C 315.738 29.795,316.118 30.532,316.264 31.115 C 316.411 31.697,316.687 32.359,316.878 32.587 C 317.485 33.308,320.800 40.084,320.800 40.604 C 320.800 40.878,321.052 41.311,321.361 41.567 C 321.669 41.823,322.040 42.506,322.186 43.085 C 322.331 43.663,322.798 44.580,323.225 45.122 C 323.651 45.664,324.000 46.422,324.000 46.805 C 324.000 47.188,324.265 47.722,324.589 47.991 C 324.914 48.260,325.291 49.080,325.429 49.812 C 325.566 50.545,325.908 51.233,326.188 51.340 C 326.468 51.447,326.821 52.031,326.973 52.636 C 327.125 53.242,327.598 54.180,328.025 54.722 C 328.451 55.264,328.800 56.022,328.800 56.405 C 328.800 56.788,329.052 57.311,329.361 57.567 C 329.669 57.823,330.043 58.519,330.192 59.112 C 330.341 59.706,330.594 60.284,330.754 60.396 C 331.175 60.691,338.000 74.567,338.000 75.128 C 338.000 75.388,338.360 75.960,338.800 76.400 C 339.240 76.840,339.600 77.549,339.600 77.976 C 339.600 78.403,339.782 78.865,340.005 79.003 C 340.436 79.269,342.800 84.116,342.800 84.734 C 342.800 84.937,343.052 85.311,343.361 85.567 C 343.669 85.823,344.038 86.497,344.181 87.065 C 344.323 87.632,344.709 88.367,345.039 88.697 C 345.369 89.026,345.743 89.815,345.870 90.448 C 345.996 91.082,346.250 91.600,346.434 91.600 C 346.618 91.600,346.984 92.320,347.247 93.200 C 347.511 94.080,347.864 94.800,348.032 94.800 C 348.200 94.800,348.559 95.470,348.829 96.289 C 349.100 97.108,349.564 98.021,349.860 98.318 C 351.858 100.315,351.040 100.386,324.963 100.497 L 300.600 100.600 300.497 125.091 L 300.394 149.583 325.812 149.691 C 347.888 149.786,351.280 149.879,351.611 150.400 C 352.419 151.670,351.905 250.267,351.086 251.086 C 350.418 251.754,348.754 251.807,325.386 251.909 L 300.400 252.018 300.400 275.809 L 300.400 299.600 348.774 299.600 C 401.565 299.600,402.631 299.653,397.500 302.009 C 396.565 302.439,395.530 302.953,395.200 303.153 C 394.870 303.352,392.890 304.363,390.800 305.399 C 386.930 307.318,385.073 308.264,384.000 308.866 C 383.670 309.051,382.950 309.381,382.400 309.601 C 381.850 309.820,381.130 310.180,380.800 310.401 C 380.470 310.621,379.750 310.992,379.200 311.224 C 378.650 311.457,377.300 312.099,376.200 312.653 C 375.100 313.206,373.660 313.925,373.000 314.250 C 372.340 314.575,371.530 314.999,371.200 315.191 C 370.531 315.581,350.946 325.357,350.000 325.774 C 349.670 325.919,348.680 326.475,347.800 327.010 C 346.920 327.544,345.750 328.176,345.200 328.414 C 343.608 329.105,339.732 331.063,338.100 332.003 C 337.715 332.225,336.950 332.604,336.400 332.846 C 335.850 333.088,335.085 333.447,334.700 333.643 C 332.945 334.538,332.157 334.948,331.600 335.257 C 331.270 335.440,329.830 336.137,328.400 336.807 C 326.970 337.478,325.530 338.201,325.200 338.416 C 324.870 338.630,324.150 339.004,323.600 339.246 C 323.050 339.488,322.330 339.844,322.000 340.037 C 320.949 340.653,316.443 342.800,316.200 342.800 C 316.071 342.800,315.749 342.997,315.483 343.237 C 315.217 343.477,312.042 345.142,308.428 346.937 C 304.813 348.732,301.796 350.386,301.723 350.614 C 301.650 350.841,312.303 361.731,325.397 374.814 C 338.490 387.896,349.304 398.915,349.428 399.300 C 349.780 400.392,351.200 400.195,351.200 399.054 C 351.200 398.534,351.560 397.650,352.000 397.091 C 352.440 396.531,352.800 395.898,352.800 395.682 C 352.800 395.094,359.701 381.421,360.076 381.267 C 360.254 381.193,360.400 380.813,360.400 380.421 C 360.400 380.029,360.762 379.248,361.204 378.686 C 361.645 378.125,362.116 377.122,362.248 376.458 C 362.381 375.794,362.740 375.155,363.045 375.038 C 363.350 374.921,363.600 374.484,363.600 374.066 C 363.600 373.649,363.960 372.850,364.400 372.291 C 364.840 371.731,365.200 371.011,365.200 370.691 C 365.200 370.370,365.560 369.650,366.000 369.091 C 366.440 368.531,366.800 367.894,366.800 367.675 C 366.800 367.140,373.423 354.011,374.193 353.019 C 374.527 352.589,374.800 351.833,374.800 351.339 C 374.800 350.844,375.045 350.296,375.343 350.120 C 375.642 349.944,376.106 349.125,376.374 348.300 C 376.643 347.475,377.000 346.800,377.168 346.800 C 377.336 346.800,377.689 346.080,377.953 345.200 C 378.216 344.320,378.585 343.600,378.772 343.600 C 378.958 343.600,379.226 342.988,379.366 342.240 C 379.506 341.492,379.875 340.670,380.185 340.413 C 380.495 340.155,380.864 339.419,381.005 338.777 C 381.146 338.135,381.409 337.518,381.589 337.407 C 381.769 337.296,382.566 335.899,383.360 334.302 C 384.154 332.706,384.964 331.130,385.159 330.800 C 385.355 330.470,385.712 329.750,385.954 329.200 C 386.196 328.650,386.556 327.930,386.754 327.600 C 386.952 327.270,387.312 326.550,387.554 326.000 C 387.796 325.450,388.157 324.730,388.355 324.400 C 388.554 324.070,390.560 320.020,392.812 315.400 C 395.065 310.780,397.130 306.730,397.400 306.400 C 397.671 306.070,398.015 305.286,398.164 304.658 C 398.319 304.008,398.773 303.427,399.218 303.311 C 399.991 303.109,400.000 301.983,400.000 201.753 L 400.000 100.400 376.049 100.400 C 355.436 100.400,352.030 100.318,351.609 99.810 C 351.114 99.215,398.488 51.200,399.570 51.200 C 399.807 51.200,400.000 51.020,400.000 50.800 C 400.000 50.580,399.775 50.402,399.500 50.405 C 399.060 50.409,392.794 47.366,391.200 46.373 C 390.870 46.168,390.150 45.820,389.600 45.601 C 389.050 45.381,388.330 45.021,388.000 44.801 C 387.670 44.580,386.950 44.217,386.400 43.993 C 385.850 43.769,384.414 43.050,383.208 42.393 C 382.002 41.737,380.815 41.200,380.569 41.200 C 380.323 41.200,379.720 40.851,379.228 40.425 C 378.737 39.998,377.809 39.534,377.167 39.393 C 376.525 39.252,376.000 38.983,376.000 38.795 C 376.000 38.607,375.595 38.330,375.100 38.178 C 374.605 38.026,373.120 37.381,371.800 36.745 C 369.533 35.653,368.990 35.370,367.300 34.397 C 366.915 34.175,366.150 33.796,365.600 33.554 C 365.050 33.312,364.330 32.952,364.000 32.754 C 363.670 32.556,362.950 32.196,362.400 31.954 C 361.850 31.712,361.130 31.365,360.800 31.183 C 359.306 30.357,356.099 28.810,355.100 28.434 C 354.495 28.206,354.000 27.835,354.000 27.610 C 354.000 27.384,353.664 27.200,353.254 27.200 C 352.844 27.200,352.079 26.865,351.554 26.455 C 351.029 26.045,350.150 25.570,349.600 25.399 C 349.050 25.228,347.973 24.753,347.206 24.344 C 346.439 23.935,345.584 23.600,345.306 23.600 C 345.028 23.600,344.800 23.434,344.800 23.231 C 344.800 23.028,344.130 22.641,343.311 22.371 C 342.492 22.100,341.579 21.636,341.282 21.340 C 340.986 21.043,340.406 20.800,339.995 20.800 C 339.584 20.800,339.140 20.626,339.008 20.413 C 338.731 19.965,330.693 16.000,330.062 16.000 C 329.830 16.000,329.496 15.755,329.320 15.457 C 329.144 15.158,328.325 14.694,327.500 14.426 C 326.675 14.157,326.000 13.800,326.000 13.632 C 326.000 13.464,325.280 13.111,324.400 12.847 C 323.520 12.584,322.800 12.218,322.800 12.034 C 322.800 11.850,322.282 11.596,321.648 11.470 C 321.015 11.343,320.226 10.969,319.897 10.639 C 319.567 10.309,318.832 9.923,318.265 9.781 C 317.697 9.638,317.023 9.269,316.767 8.961 C 316.511 8.652,316.069 8.400,315.785 8.400 C 315.500 8.400,314.127 7.770,312.734 7.000 C 311.340 6.230,309.930 5.497,309.600 5.371 C 309.270 5.245,307.590 4.435,305.868 3.571 C 302.615 1.940,302.000 1.748,302.000 2.368 M177.333 75.053 C 164.610 87.784,153.953 98.515,153.651 98.900 C 153.129 99.566,155.422 99.600,200.611 99.600 L 248.120 99.600 242.760 94.167 C 239.812 91.178,236.789 88.163,236.042 87.467 C 233.945 85.510,232.404 83.831,232.402 83.500 C 232.401 83.335,232.222 83.200,232.003 83.200 C 231.661 83.200,230.894 82.470,228.954 80.299 C 228.708 80.025,227.673 79.039,226.654 78.110 C 225.634 77.180,224.800 76.270,224.800 76.087 C 224.800 75.903,224.117 75.239,223.282 74.611 C 222.446 73.983,221.321 72.874,220.782 72.146 C 220.242 71.418,219.651 70.817,219.469 70.811 C 218.976 70.795,216.800 68.528,216.800 68.031 C 216.800 67.794,216.665 67.599,216.500 67.598 C 216.064 67.595,212.400 64.062,212.400 63.645 C 212.400 63.451,211.978 63.016,211.462 62.678 C 210.947 62.340,209.912 61.398,209.162 60.584 C 208.413 59.771,207.572 58.902,207.293 58.653 C 207.014 58.404,205.364 56.784,203.626 55.053 L 200.467 51.907 177.333 75.053 M125.600 150.200 L 125.600 174.800 150.200 174.800 L 174.800 174.800 174.800 150.200 L 174.800 125.600 150.200 125.600 L 125.600 125.600 125.600 150.200 M225.600 150.200 L 225.600 174.800 250.200 174.800 L 274.800 174.800 274.800 150.200 L 274.800 125.600 250.200 125.600 L 225.600 125.600 225.600 150.200 M300.400 200.433 C 300.400 233.950,300.528 248.424,300.822 248.326 C 301.168 248.211,330.629 218.931,345.155 204.266 L 348.909 200.475 343.155 194.595 C 339.990 191.360,336.789 188.149,336.042 187.457 C 333.980 185.547,332.404 183.834,332.402 183.500 C 332.401 183.335,332.222 183.200,332.003 183.200 C 331.661 183.200,330.894 182.470,328.954 180.299 C 328.708 180.025,327.673 179.039,326.654 178.110 C 325.634 177.180,324.800 176.270,324.800 176.087 C 324.800 175.903,324.117 175.239,323.282 174.611 C 322.446 173.983,321.321 172.874,320.782 172.146 C 320.242 171.418,319.651 170.817,319.469 170.811 C 318.976 170.795,316.800 168.528,316.800 168.031 C 316.800 167.794,316.665 167.599,316.500 167.598 C 316.064 167.595,312.400 164.062,312.400 163.645 C 312.400 163.451,311.978 163.016,311.462 162.678 C 310.947 162.340,309.912 161.398,309.162 160.584 C 308.413 159.771,307.571 158.902,307.292 158.653 C 307.012 158.404,305.482 156.898,303.892 155.306 C 302.301 153.714,300.865 152.409,300.700 152.406 C 300.535 152.403,300.400 174.015,300.400 200.433 M75.525 176.831 L 51.902 200.462 55.051 203.624 C 56.783 205.363,58.404 207.014,58.653 207.293 C 58.902 207.572,59.771 208.413,60.584 209.162 C 61.398 209.912,62.340 210.947,62.678 211.462 C 63.016 211.978,63.451 212.400,63.645 212.400 C 64.062 212.400,67.595 216.064,67.598 216.500 C 67.599 216.665,67.794 216.800,68.031 216.800 C 68.528 216.800,70.795 218.976,70.811 219.469 C 70.817 219.651,71.418 220.242,72.146 220.782 C 72.874 221.321,73.983 222.446,74.611 223.282 C 75.239 224.117,75.903 224.800,76.087 224.800 C 76.270 224.800,77.180 225.634,78.110 226.654 C 79.039 227.673,80.025 228.708,80.299 228.954 C 82.470 230.894,83.200 231.661,83.200 232.003 C 83.200 232.222,83.335 232.401,83.500 232.402 C 83.831 232.404,85.510 233.945,87.467 236.042 C 88.163 236.789,91.178 239.812,94.167 242.760 L 99.600 248.120 99.600 200.660 C 99.600 174.557,99.498 153.200,99.374 153.200 C 99.249 153.200,88.517 163.834,75.525 176.831 M125.600 250.200 L 125.600 274.800 150.200 274.800 L 174.800 274.800 174.800 250.200 L 174.800 225.600 150.200 225.600 L 125.600 225.600 125.600 250.200 M225.600 250.200 L 225.600 274.800 250.200 274.800 L 274.800 274.800 274.800 250.200 L 274.800 225.600 250.200 225.600 L 225.600 225.600 225.600 250.200 M100.667 300.667 C 100.520 300.813,100.397 322.368,100.394 348.567 C 100.390 375.446,100.234 396.443,100.034 396.758 C 99.495 397.610,98.413 396.966,98.147 395.635 C 98.017 394.984,97.677 394.362,97.393 394.253 C 97.108 394.143,96.757 393.514,96.612 392.855 C 96.467 392.195,96.095 391.445,95.785 391.187 C 95.475 390.930,95.109 390.120,94.971 389.388 C 94.834 388.655,94.486 387.965,94.198 387.855 C 93.911 387.744,93.557 387.114,93.412 386.455 C 93.267 385.795,92.902 385.050,92.600 384.800 C 92.298 384.550,91.938 383.830,91.800 383.200 C 91.662 382.570,91.302 381.850,91.000 381.600 C 90.698 381.350,90.336 380.617,90.194 379.972 C 90.052 379.328,89.778 378.800,89.584 378.800 C 89.391 378.800,89.016 378.078,88.751 377.195 C 88.487 376.313,88.030 375.391,87.735 375.146 C 87.441 374.902,87.200 374.388,87.200 374.005 C 87.200 373.622,86.865 372.879,86.455 372.354 C 86.045 371.829,85.571 370.950,85.401 370.400 C 85.231 369.850,84.966 369.310,84.813 369.200 C 84.659 369.090,84.047 367.920,83.452 366.600 C 82.856 365.280,82.204 363.930,82.002 363.600 C 81.030 362.016,79.200 358.218,79.200 357.785 C 79.200 357.517,78.942 357.083,78.626 356.821 C 78.310 356.559,77.936 355.817,77.794 355.172 C 77.652 354.528,77.385 354.000,77.199 354.000 C 77.014 354.000,76.645 353.325,76.380 352.500 C 76.116 351.675,75.673 350.730,75.397 350.400 C 75.121 350.070,74.762 349.350,74.600 348.800 C 74.438 348.250,74.078 347.530,73.800 347.200 C 73.522 346.870,73.159 346.150,72.993 345.600 C 72.828 345.050,72.568 344.510,72.417 344.400 C 72.030 344.119,69.600 339.030,69.600 338.502 C 69.600 338.262,69.456 338.007,69.281 337.933 C 69.105 337.860,67.989 335.820,66.800 333.400 C 65.611 330.980,64.495 328.940,64.319 328.867 C 64.144 328.793,63.998 328.523,63.996 328.267 C 63.994 328.010,63.550 326.900,63.009 325.800 C 62.468 324.700,62.019 323.648,62.013 323.463 C 62.006 323.278,61.640 322.669,61.200 322.109 C 60.760 321.550,60.400 320.830,60.400 320.509 C 60.400 320.189,60.040 319.469,59.600 318.909 C 59.160 318.350,58.800 317.556,58.800 317.146 C 58.800 316.736,58.627 316.400,58.416 316.400 C 58.205 316.400,57.816 315.680,57.553 314.800 C 57.289 313.920,56.941 313.200,56.780 313.200 C 56.619 313.200,56.205 312.495,55.860 311.634 C 55.516 310.773,55.060 309.961,54.848 309.829 C 54.635 309.698,54.346 309.065,54.205 308.423 C 54.064 307.781,53.690 307.041,53.374 306.779 C 53.058 306.517,52.800 305.992,52.800 305.612 C 52.800 305.233,52.440 304.507,52.000 304.000 C 51.560 303.493,51.200 302.745,51.200 302.339 C 51.200 300.594,47.950 303.311,38.315 313.110 C 29.771 321.800,26.301 325.200,25.977 325.200 C 25.756 325.200,25.462 325.494,25.324 325.853 C 25.187 326.212,22.473 329.073,19.294 332.210 C 6.915 344.429,2.066 349.456,1.930 350.212 C 1.836 350.730,2.151 351.026,3.050 351.265 C 3.737 351.447,4.524 351.868,4.799 352.198 C 5.073 352.529,5.526 352.800,5.806 352.800 C 6.085 352.800,7.998 353.695,10.057 354.789 C 12.115 355.883,14.250 356.963,14.800 357.189 C 15.350 357.415,16.070 357.780,16.400 358.001 C 16.730 358.221,17.450 358.581,18.000 358.801 C 18.550 359.020,19.270 359.380,19.600 359.601 C 19.930 359.821,20.650 360.181,21.200 360.401 C 21.750 360.620,22.470 360.981,22.800 361.203 C 23.130 361.424,23.850 361.804,24.400 362.046 C 24.950 362.288,25.670 362.647,26.000 362.845 C 26.330 363.043,26.870 363.309,27.200 363.435 C 28.292 363.854,29.392 364.389,30.000 364.797 C 30.330 365.019,31.050 365.380,31.600 365.599 C 32.150 365.819,32.870 366.154,33.200 366.345 C 34.100 366.866,38.680 369.169,41.400 370.469 C 42.720 371.099,44.070 371.793,44.400 372.011 C 44.730 372.228,45.450 372.604,46.000 372.846 C 46.550 373.088,47.270 373.448,47.600 373.646 C 47.930 373.844,48.650 374.204,49.200 374.446 C 49.750 374.688,50.470 375.047,50.800 375.244 C 51.130 375.441,51.850 375.781,52.400 376.001 C 52.950 376.220,53.670 376.580,54.000 376.801 C 54.330 377.021,55.050 377.387,55.600 377.613 C 56.877 378.138,57.262 378.317,58.000 378.733 C 59.700 379.690,65.861 382.780,68.600 384.049 C 69.480 384.456,70.515 384.972,70.900 385.195 C 73.517 386.709,77.693 388.800,78.101 388.800 C 78.306 388.800,78.931 389.160,79.491 389.600 C 80.050 390.040,80.822 390.400,81.205 390.400 C 81.588 390.400,82.117 390.658,82.379 390.974 C 82.641 391.290,83.385 391.665,84.032 391.807 C 84.679 391.949,85.433 392.276,85.707 392.533 C 85.981 392.790,87.824 393.776,89.803 394.725 C 91.781 395.674,93.850 396.702,94.400 397.009 C 94.950 397.316,96.075 397.864,96.900 398.227 C 97.725 398.590,98.400 399.137,98.400 399.443 C 98.400 399.917,113.332 400.000,198.991 400.000 L 299.582 400.000 299.691 375.300 C 299.751 361.715,299.751 339.305,299.691 325.500 L 299.583 300.400 275.800 300.400 L 252.018 300.400 251.909 325.386 C 251.807 348.754,251.754 350.418,251.086 351.086 C 250.267 351.905,151.670 352.419,150.400 351.611 C 149.879 351.280,149.786 347.889,149.691 325.815 L 149.583 300.400 125.258 300.400 C 111.879 300.400,100.813 300.520,100.667 300.667 M152.406 300.700 C 152.409 300.865,153.714 302.301,155.306 303.892 C 156.898 305.482,158.404 307.012,158.653 307.292 C 158.902 307.571,159.771 308.413,160.584 309.162 C 161.398 309.912,162.340 310.947,162.678 311.462 C 163.016 311.978,163.451 312.400,163.645 312.400 C 164.062 312.400,167.595 316.064,167.598 316.500 C 167.599 316.665,167.794 316.800,168.031 316.800 C 168.528 316.800,170.795 318.976,170.811 319.469 C 170.817 319.651,171.418 320.242,172.146 320.782 C 172.874 321.321,173.983 322.446,174.611 323.282 C 175.239 324.117,175.903 324.800,176.087 324.800 C 176.270 324.800,177.180 325.634,178.110 326.654 C 179.039 327.673,180.025 328.708,180.299 328.954 C 182.470 330.894,183.200 331.661,183.200 332.003 C 183.200 332.222,183.335 332.401,183.500 332.402 C 183.834 332.404,185.547 333.980,187.457 336.042 C 188.149 336.789,191.360 339.990,194.595 343.155 L 200.475 348.909 204.266 345.155 C 218.931 330.629,248.211 301.168,248.326 300.822 C 248.424 300.528,233.950 300.400,200.433 300.400 C 174.015 300.400,152.403 300.535,152.406 300.700 " stroke="none" fill="#fcfcfb" fill-rule="evenodd"></path><path id="path2" d="M49.646 0.457 C 49.621 0.819,49.353 1.209,49.051 1.325 C 48.750 1.441,48.379 2.031,48.227 2.636 C 48.075 3.242,47.602 4.180,47.175 4.722 C 46.749 5.264,46.400 6.022,46.400 6.405 C 46.400 6.788,46.142 7.317,45.826 7.579 C 45.510 7.841,45.138 8.570,45.000 9.200 C 44.862 9.830,44.502 10.550,44.200 10.800 C 43.898 11.050,43.536 11.783,43.394 12.428 C 43.252 13.072,42.978 13.600,42.784 13.600 C 42.591 13.600,42.216 14.320,41.953 15.200 C 41.689 16.080,41.329 16.800,41.153 16.800 C 40.976 16.800,40.616 17.520,40.353 18.400 C 40.089 19.280,39.729 20.000,39.553 20.000 C 39.376 20.000,39.016 20.720,38.753 21.600 C 38.489 22.480,38.136 23.200,37.968 23.200 C 37.801 23.200,37.548 23.725,37.407 24.367 C 37.266 25.009,36.802 25.937,36.375 26.428 C 35.949 26.920,35.600 27.581,35.600 27.898 C 35.600 28.215,35.240 28.931,34.800 29.491 C 34.360 30.050,34.000 30.822,34.000 31.205 C 34.000 31.588,33.748 32.111,33.439 32.367 C 33.131 32.623,32.757 33.320,32.608 33.916 C 32.459 34.512,32.103 35.270,31.816 35.600 C 31.529 35.930,31.159 36.650,30.992 37.200 C 30.826 37.750,30.355 38.629,29.945 39.154 C 29.535 39.679,29.200 40.422,29.200 40.805 C 29.200 41.188,28.942 41.717,28.626 41.979 C 28.310 42.241,27.938 42.970,27.800 43.600 C 27.662 44.230,27.302 44.950,27.000 45.200 C 26.698 45.450,26.338 46.170,26.200 46.800 C 26.062 47.430,25.690 48.159,25.374 48.421 C 25.058 48.683,24.800 49.212,24.800 49.595 C 24.800 49.978,24.440 50.750,24.000 51.309 C 23.560 51.869,23.200 52.600,23.200 52.935 C 23.200 53.269,22.959 53.784,22.664 54.079 C 22.369 54.374,21.617 55.782,20.992 57.207 C 20.367 58.633,19.720 59.984,19.554 60.209 C 18.853 61.161,16.800 65.323,16.800 65.792 C 16.800 66.072,16.542 66.517,16.226 66.779 C 15.910 67.041,15.538 67.770,15.400 68.400 C 15.262 69.030,14.902 69.750,14.600 70.000 C 14.298 70.250,13.938 70.970,13.800 71.600 C 13.662 72.230,13.302 72.950,13.000 73.200 C 12.698 73.450,12.338 74.170,12.200 74.800 C 12.062 75.430,11.702 76.150,11.400 76.400 C 11.098 76.650,10.738 77.370,10.600 78.000 C 10.462 78.630,10.102 79.350,9.800 79.600 C 9.498 79.850,9.138 80.570,9.000 81.200 C 8.862 81.830,8.508 82.545,8.214 82.789 C 7.919 83.033,7.564 83.691,7.423 84.251 C 7.283 84.810,6.989 85.478,6.771 85.734 C 6.211 86.392,2.800 93.225,2.800 93.690 C 2.800 93.901,2.440 94.531,2.000 95.091 C 1.560 95.650,1.200 96.449,1.200 96.866 C 1.200 97.284,0.930 97.729,0.600 97.855 C -0.126 98.134,-0.198 98.806,0.500 98.784 C 0.775 98.775,11.786 77.130,24.970 50.684 C 38.153 24.238,49.194 2.298,49.505 1.930 C 49.816 1.561,49.985 0.931,49.881 0.530 C 49.728 -0.064,49.684 -0.078,49.646 0.457 M51.200 0.404 C 51.200 1.059,99.223 48.833,99.629 48.582 C 99.852 48.444,99.961 38.670,99.903 24.076 L 99.806 -0.200 99.700 23.900 C 99.642 37.155,99.513 48.000,99.415 48.000 C 99.059 48.000,52.000 0.725,52.000 0.368 C 52.000 0.165,51.820 0.000,51.600 0.000 C 51.380 0.000,51.200 0.182,51.200 0.404 M302.018 0.500 C 302.028 0.775,315.303 7.627,331.518 15.726 C 347.733 23.825,364.150 32.043,368.000 33.987 C 371.850 35.932,375.990 38.002,377.200 38.587 C 378.410 39.172,379.670 39.812,380.000 40.010 C 380.330 40.207,381.770 40.929,383.200 41.613 C 384.630 42.298,388.939 44.461,392.776 46.420 C 396.612 48.379,399.839 49.894,399.947 49.787 C 400.256 49.477,398.705 48.462,397.505 48.188 C 396.902 48.051,396.305 47.770,396.178 47.565 C 396.051 47.359,394.744 46.647,393.274 45.983 C 391.803 45.318,390.330 44.603,390.000 44.393 C 389.670 44.183,388.860 43.743,388.200 43.414 C 387.540 43.085,386.730 42.650,386.400 42.447 C 386.070 42.243,380.490 39.438,374.000 36.212 C 367.510 32.985,361.930 30.178,361.600 29.973 C 361.270 29.767,360.550 29.420,360.000 29.201 C 359.450 28.981,358.730 28.641,358.400 28.444 C 358.070 28.247,357.350 27.888,356.800 27.646 C 356.250 27.404,355.530 27.024,355.200 26.803 C 354.870 26.581,354.150 26.220,353.600 26.001 C 353.050 25.781,352.330 25.441,352.000 25.244 C 351.670 25.047,350.950 24.688,350.400 24.446 C 349.850 24.204,349.130 23.844,348.800 23.646 C 348.470 23.448,347.750 23.088,347.200 22.846 C 346.650 22.604,345.930 22.227,345.600 22.008 C 345.270 21.790,343.290 20.781,341.200 19.767 C 337.542 17.991,335.675 17.049,334.400 16.334 C 334.070 16.149,333.350 15.819,332.800 15.599 C 332.250 15.380,331.530 15.020,331.200 14.799 C 330.870 14.579,330.150 14.213,329.600 13.987 C 328.255 13.434,327.904 13.268,327.200 12.845 C 326.870 12.647,326.150 12.277,325.600 12.023 C 324.281 11.413,322.348 10.443,321.600 10.015 C 321.270 9.827,316.995 7.653,312.100 5.186 C 307.205 2.718,303.200 0.542,303.200 0.350 C 303.200 0.157,302.930 0.000,302.600 0.000 C 302.270 0.000,302.008 0.225,302.018 0.500 M300.252 2.900 C 300.119 3.395,300.008 25.445,300.005 51.900 L 300.000 100.000 275.880 100.000 C 257.653 100.000,251.643 99.883,251.280 99.520 C 250.917 99.157,250.800 93.104,250.800 74.728 L 250.800 50.415 249.900 50.199 C 249.405 50.081,226.770 50.032,199.600 50.092 L 150.200 50.200 150.000 75.000 L 149.800 99.800 124.900 99.903 L 100.000 100.006 100.000 76.027 C 100.000 59.341,99.869 51.966,99.570 51.781 C 99.020 51.441,3.992 98.864,4.149 99.400 C 4.226 99.663,20.656 99.835,52.136 99.902 L 100.006 100.003 99.903 124.902 L 99.800 149.800 75.000 150.000 L 50.200 150.200 50.092 199.600 C 50.032 226.770,50.081 249.405,50.199 249.900 L 50.415 250.800 74.728 250.800 C 93.104 250.800,99.157 250.917,99.520 251.280 C 99.883 251.643,100.000 257.653,100.000 275.880 L 100.000 300.000 76.080 300.000 C 58.964 300.000,52.033 300.127,51.712 300.448 C 51.315 300.845,53.579 306.239,55.218 308.800 C 55.429 309.130,55.781 309.850,56.001 310.400 C 56.220 310.950,56.567 311.670,56.772 312.000 C 56.977 312.330,60.948 320.160,65.595 329.400 C 70.243 338.640,74.199 346.470,74.387 346.800 C 74.575 347.130,76.376 350.730,78.390 354.800 C 80.404 358.870,82.213 362.470,82.410 362.800 C 82.608 363.130,83.607 365.110,84.632 367.200 C 85.657 369.290,86.734 371.450,87.024 372.000 C 87.315 372.550,89.138 376.195,91.076 380.100 C 98.803 395.669,99.270 396.534,99.635 395.957 C 99.833 395.644,99.990 374.541,99.994 347.700 L 100.000 300.000 124.776 300.000 C 140.051 300.000,149.643 300.146,149.788 300.381 C 149.918 300.591,150.016 311.729,150.006 325.133 C 149.996 338.537,150.100 349.796,150.237 350.152 C 150.562 351.000,249.474 351.166,250.320 350.320 C 250.683 349.957,250.800 343.861,250.800 325.334 C 250.800 301.515,250.822 300.817,251.574 300.414 C 252.082 300.142,260.515 300.000,276.174 300.000 L 300.000 300.000 300.000 324.813 C 300.000 351.265,299.988 351.104,301.840 349.567 C 302.186 349.280,306.663 346.942,311.789 344.372 C 316.914 341.803,321.984 339.256,323.054 338.713 C 324.876 337.790,326.709 336.868,332.600 333.915 C 333.920 333.253,335.990 332.198,337.200 331.571 C 340.758 329.726,373.043 313.449,374.274 312.879 C 374.893 312.593,375.670 312.187,376.000 311.978 C 376.330 311.769,377.050 311.419,377.600 311.199 C 378.150 310.980,378.870 310.638,379.200 310.440 C 379.530 310.242,383.888 308.037,388.885 305.540 C 393.882 303.043,397.977 300.886,397.985 300.747 C 398.024 300.084,393.055 300.011,348.100 300.005 L 300.000 300.000 300.000 276.174 C 300.000 260.515,300.142 252.082,300.414 251.574 C 300.817 250.822,301.515 250.800,325.334 250.800 C 343.861 250.800,349.957 250.683,350.320 250.320 C 351.166 249.474,351.000 150.562,350.152 150.237 C 349.796 150.100,338.537 149.996,325.133 150.006 C 311.729 150.016,300.591 149.918,300.381 149.788 C 300.146 149.643,300.000 140.051,300.000 124.776 L 300.000 100.000 324.300 99.994 C 337.665 99.991,348.814 99.851,349.076 99.685 C 349.410 99.472,347.834 95.985,343.789 87.991 C 340.619 81.726,337.911 76.330,337.771 76.000 C 337.500 75.361,326.140 52.614,325.585 51.600 C 325.405 51.270,322.589 45.650,319.329 39.110 C 316.068 32.571,313.220 26.864,313.000 26.428 C 312.780 25.992,309.990 20.324,306.800 13.831 C 300.819 1.657,300.657 1.388,300.252 2.900 M305.369 12.513 C 307.773 17.401,309.861 21.490,310.011 21.600 C 310.161 21.710,310.504 22.475,310.773 23.300 C 311.042 24.125,311.416 24.800,311.604 24.800 C 311.792 24.800,312.059 25.205,312.197 25.700 C 312.395 26.411,323.011 47.924,324.386 50.400 C 324.569 50.730,327.357 56.310,330.581 62.800 C 333.806 69.290,336.595 74.870,336.780 75.200 C 338.227 77.782,348.402 98.708,348.401 99.100 C 348.400 99.494,343.333 99.600,324.400 99.600 L 300.400 99.600 300.400 51.600 C 300.400 25.200,300.535 3.606,300.700 3.613 C 300.865 3.620,302.966 7.625,305.369 12.513 M200.000 50.800 C 200.000 51.020,199.832 51.200,199.627 51.200 C 198.423 51.200,151.135 99.363,151.835 99.875 C 152.434 100.313,214.095 100.456,249.600 100.102 C 249.930 100.099,261.315 100.168,274.900 100.257 L 299.600 100.418 299.600 125.129 C 299.600 142.466,299.730 149.970,300.037 150.277 C 300.353 150.593,300.353 150.940,300.037 151.531 C 299.725 152.113,299.602 173.440,299.608 225.833 C 299.612 266.250,299.548 299.385,299.467 299.467 C 299.385 299.548,266.250 299.612,225.833 299.608 C 173.440 299.602,152.113 299.725,151.531 300.037 C 150.940 300.353,150.593 300.353,150.277 300.037 C 149.970 299.730,142.466 299.600,125.129 299.600 L 100.418 299.600 100.257 274.900 C 100.168 261.315,100.099 249.930,100.102 249.600 C 100.456 214.095,100.313 152.434,99.875 151.835 C 99.363 151.135,51.200 198.423,51.200 199.627 C 51.200 199.832,51.019 200.000,50.797 200.000 C 50.529 200.000,50.429 191.693,50.497 175.300 L 50.600 150.600 75.400 150.400 L 100.200 150.200 100.303 125.303 L 100.406 100.406 125.303 100.303 L 150.200 100.200 150.300 75.800 C 150.354 62.380,150.484 51.175,150.587 50.900 C 150.828 50.257,200.000 50.158,200.000 50.800 M249.903 74.330 C 249.960 87.381,249.870 98.281,249.703 98.552 C 249.502 98.879,241.346 90.977,225.342 74.947 C 212.109 61.694,201.386 50.748,201.511 50.622 C 201.637 50.497,212.553 50.440,225.770 50.497 L 249.800 50.600 249.903 74.330 M224.990 75.571 C 238.063 88.644,248.668 99.489,248.556 99.671 C 248.297 100.090,153.169 100.095,152.508 99.675 C 151.814 99.235,199.531 51.531,200.510 51.687 C 200.900 51.749,211.916 62.497,224.990 75.571 M99.600 75.800 L 99.600 99.600 52.176 99.600 C 20.663 99.600,4.836 99.466,5.000 99.200 C 5.136 98.980,5.572 98.800,5.970 98.800 C 6.367 98.800,7.150 98.440,7.709 98.000 C 8.269 97.560,8.968 97.188,9.263 97.173 C 9.558 97.159,10.700 96.620,11.800 95.977 C 12.900 95.333,14.250 94.625,14.800 94.403 C 15.350 94.182,16.070 93.820,16.400 93.599 C 16.730 93.379,17.450 93.008,18.000 92.776 C 19.209 92.265,22.093 90.832,25.596 89.000 C 27.023 88.254,28.463 87.549,28.796 87.433 C 29.128 87.318,29.670 87.057,30.000 86.854 C 30.330 86.651,31.050 86.288,31.600 86.046 C 32.150 85.804,32.870 85.444,33.200 85.246 C 33.530 85.048,34.250 84.688,34.800 84.446 C 35.350 84.204,36.070 83.849,36.400 83.657 C 36.730 83.465,38.080 82.773,39.400 82.120 C 40.720 81.467,42.160 80.735,42.600 80.492 C 43.040 80.249,44.390 79.578,45.600 79.000 C 46.810 78.422,48.070 77.790,48.400 77.595 C 49.458 76.972,52.656 75.397,53.600 75.035 C 53.930 74.909,54.470 74.624,54.800 74.402 C 55.130 74.181,55.850 73.820,56.400 73.601 C 56.950 73.381,57.670 73.021,58.000 72.801 C 58.330 72.580,59.050 72.220,59.600 72.001 C 60.150 71.781,60.870 71.441,61.200 71.244 C 61.530 71.047,62.250 70.688,62.800 70.446 C 63.350 70.204,64.070 69.844,64.400 69.646 C 64.730 69.448,65.450 69.088,66.000 68.846 C 66.550 68.604,67.270 68.242,67.600 68.042 C 67.930 67.841,69.410 67.111,70.888 66.419 C 72.367 65.727,73.683 64.990,73.812 64.781 C 73.941 64.571,74.323 64.400,74.661 64.400 C 74.998 64.400,75.731 64.040,76.291 63.600 C 76.850 63.160,77.622 62.800,78.005 62.800 C 78.388 62.800,78.902 62.559,79.146 62.265 C 79.391 61.970,80.313 61.513,81.195 61.249 C 82.078 60.984,82.800 60.609,82.800 60.416 C 82.800 60.222,83.328 59.948,83.972 59.806 C 84.617 59.664,85.359 59.290,85.621 58.974 C 85.883 58.658,86.412 58.400,86.795 58.400 C 87.178 58.400,87.950 58.040,88.509 57.600 C 89.069 57.160,89.789 56.800,90.109 56.800 C 90.430 56.800,91.150 56.440,91.709 56.000 C 92.269 55.560,92.840 55.200,92.980 55.200 C 93.515 55.200,98.360 52.789,98.597 52.405 C 99.484 50.970,99.600 53.684,99.600 75.800 M375.512 75.714 C 362.593 88.694,352.119 99.468,352.235 99.657 C 352.352 99.846,363.192 99.956,376.324 99.903 L 400.200 99.807 376.668 99.700 C 361.259 99.630,353.181 99.456,353.268 99.195 C 353.386 98.841,380.259 71.804,394.578 57.634 C 397.560 54.682,400.000 52.207,400.000 52.134 C 400.000 51.291,395.643 55.487,375.512 75.714 M124.800 150.320 C 124.800 169.636,124.917 175.957,125.280 176.320 C 125.643 176.683,131.746 176.800,150.298 176.800 L 174.836 176.800 175.818 175.818 L 176.800 174.836 176.800 150.298 C 176.800 131.746,176.683 125.643,176.320 125.280 C 175.957 124.917,169.636 124.800,150.320 124.800 L 124.800 124.800 124.800 150.320 M224.800 150.320 C 224.800 169.636,224.917 175.957,225.280 176.320 C 225.643 176.683,231.746 176.800,250.298 176.800 L 274.836 176.800 275.818 175.818 L 276.800 174.836 276.800 150.298 C 276.800 131.746,276.683 125.643,276.320 125.280 C 275.957 124.917,269.636 124.800,250.320 124.800 L 224.800 124.800 224.800 150.320 M175.367 125.443 C 175.935 125.660,176.000 128.190,176.000 149.917 L 176.000 174.148 175.130 175.074 L 174.261 176.000 149.973 176.000 C 128.195 176.000,125.661 175.935,125.443 175.367 C 125.309 175.019,125.200 163.589,125.200 149.967 L 125.200 125.200 149.967 125.200 C 163.589 125.200,175.019 125.309,175.367 125.443 M275.367 125.443 C 275.935 125.660,276.000 128.190,276.000 149.917 L 276.000 174.148 275.130 175.074 L 274.261 176.000 249.973 176.000 C 228.195 176.000,225.661 175.935,225.443 175.367 C 225.309 175.019,225.200 163.589,225.200 149.967 L 225.200 125.200 249.967 125.200 C 263.589 125.200,275.019 125.309,275.367 125.443 M349.903 174.330 C 349.960 187.381,349.870 198.281,349.703 198.552 C 349.502 198.879,341.346 190.977,325.342 174.947 C 312.109 161.694,301.386 150.748,301.511 150.622 C 301.637 150.497,312.553 150.440,325.770 150.497 L 349.800 150.600 349.903 174.330 M325.799 176.379 C 351.763 202.320,350.677 201.200,349.892 201.200 C 349.266 201.200,301.526 248.887,301.155 249.883 C 300.928 250.493,300.822 250.432,300.444 249.474 C 299.948 248.216,299.782 152.351,300.275 151.858 C 300.763 151.370,300.871 151.474,325.799 176.379 M99.994 200.676 C 99.997 226.898,99.852 248.444,99.671 248.556 C 99.108 248.904,51.800 201.309,51.800 200.395 C 51.800 199.270,99.238 151.820,99.675 152.508 C 99.847 152.778,99.991 174.454,99.994 200.676 M98.552 249.703 C 98.281 249.870,87.381 249.960,74.330 249.903 L 50.600 249.800 50.496 226.000 C 50.439 212.910,50.478 201.976,50.583 201.703 C 50.690 201.423,61.329 211.745,74.908 225.303 C 90.964 241.333,98.879 249.502,98.552 249.703 M349.903 225.900 L 349.800 249.800 325.866 249.903 C 308.858 249.976,301.973 249.881,302.075 249.574 C 302.275 248.974,349.281 202.000,349.682 202.000 C 349.860 202.000,349.960 212.755,349.903 225.900 M124.800 250.320 C 124.800 269.636,124.917 275.957,125.280 276.320 C 125.643 276.683,131.746 276.800,150.298 276.800 L 174.836 276.800 175.818 275.818 L 176.800 274.836 176.800 250.298 C 176.800 231.746,176.683 225.643,176.320 225.280 C 175.957 224.917,169.636 224.800,150.320 224.800 L 124.800 224.800 124.800 250.320 M224.800 250.320 C 224.800 269.636,224.917 275.957,225.280 276.320 C 225.643 276.683,231.746 276.800,250.298 276.800 L 274.836 276.800 275.818 275.818 L 276.800 274.836 276.800 250.298 C 276.800 231.746,276.683 225.643,276.320 225.280 C 275.957 224.917,269.636 224.800,250.320 224.800 L 224.800 224.800 224.800 250.320 M175.367 225.443 C 175.935 225.660,176.000 228.190,176.000 249.917 L 176.000 274.148 175.130 275.074 L 174.261 276.000 149.973 276.000 C 128.195 276.000,125.661 275.935,125.443 275.367 C 125.309 275.019,125.200 263.589,125.200 249.967 L 125.200 225.200 149.967 225.200 C 163.589 225.200,175.019 225.309,175.367 225.443 M275.367 225.443 C 275.935 225.660,276.000 228.190,276.000 249.917 L 276.000 274.148 275.130 275.074 L 274.261 276.000 249.973 276.000 C 228.195 276.000,225.661 275.935,225.443 275.367 C 225.309 275.019,225.200 263.589,225.200 249.967 L 225.200 225.200 249.967 225.200 C 263.589 225.200,275.019 225.309,275.367 225.443 M23.800 300.296 C 37.000 300.353,48.045 300.491,48.344 300.604 C 48.684 300.732,39.735 309.959,24.444 325.248 C 3.421 346.266,-0.578 350.400,0.110 350.400 C 0.730 350.400,49.867 300.563,49.486 300.321 C 49.219 300.151,37.930 300.053,24.400 300.103 L -0.200 300.194 23.800 300.296 M249.474 300.444 C 250.432 300.822,250.493 300.928,249.883 301.155 C 248.887 301.526,201.200 349.266,201.200 349.892 C 201.200 350.171,201.145 350.400,201.079 350.400 C 200.989 350.400,152.453 301.891,151.660 301.009 C 150.825 300.080,154.686 300.000,200.198 300.000 C 234.539 300.000,248.671 300.127,249.474 300.444 M99.600 347.824 C 99.600 379.337,99.466 395.164,99.200 395.000 C 98.980 394.864,98.800 394.414,98.800 394.000 C 98.800 393.586,98.643 393.150,98.451 393.031 C 98.259 392.913,96.005 388.627,93.441 383.508 C 90.878 378.389,88.620 373.930,88.423 373.600 C 88.226 373.270,85.421 367.690,82.190 361.200 C 78.958 354.710,76.072 348.950,75.775 348.400 C 75.478 347.850,74.403 345.690,73.386 343.600 C 72.369 341.510,71.392 339.530,71.213 339.200 C 71.035 338.870,70.388 337.520,69.775 336.200 C 69.162 334.880,68.458 333.530,68.211 333.200 C 67.963 332.870,67.328 331.610,66.800 330.400 C 66.272 329.190,65.627 327.930,65.367 327.600 C 65.107 327.270,64.759 326.550,64.592 326.000 C 64.426 325.450,63.955 324.571,63.545 324.046 C 63.135 323.521,62.800 322.778,62.800 322.395 C 62.800 322.012,62.548 321.489,62.239 321.233 C 61.931 320.977,61.560 320.294,61.414 319.715 C 61.269 319.137,60.802 318.220,60.375 317.678 C 59.949 317.136,59.600 316.378,59.600 315.995 C 59.600 315.612,59.348 315.089,59.039 314.833 C 58.731 314.577,58.357 313.881,58.208 313.288 C 58.059 312.694,57.809 312.116,57.654 312.004 C 57.322 311.764,52.000 301.114,52.000 300.689 C 52.000 300.530,62.710 300.400,75.800 300.400 L 99.600 300.400 99.600 347.824 M396.600 300.800 C 396.736 301.020,396.501 301.200,396.078 301.200 C 395.654 301.200,394.850 301.560,394.291 302.000 C 393.731 302.440,393.148 302.800,392.994 302.800 C 392.719 302.800,388.564 304.793,387.000 305.675 C 385.298 306.635,384.921 306.826,382.400 308.007 C 380.970 308.678,379.530 309.394,379.200 309.599 C 378.870 309.804,377.430 310.536,376.000 311.225 C 374.570 311.914,373.130 312.625,372.800 312.805 C 372.470 312.985,368.150 315.164,363.200 317.647 C 358.250 320.130,354.110 322.281,354.000 322.427 C 353.890 322.573,353.350 322.831,352.800 323.001 C 352.250 323.171,351.371 323.645,350.846 324.055 C 350.321 324.465,349.578 324.800,349.195 324.800 C 348.812 324.800,348.283 325.058,348.021 325.374 C 347.759 325.690,347.030 326.062,346.400 326.200 C 345.770 326.338,345.050 326.698,344.800 327.000 C 344.550 327.302,343.830 327.662,343.200 327.800 C 342.570 327.938,341.850 328.298,341.600 328.600 C 341.350 328.902,340.630 329.262,340.000 329.400 C 339.370 329.538,338.650 329.898,338.400 330.200 C 338.150 330.502,337.419 330.864,336.777 331.005 C 336.135 331.146,335.521 331.404,335.413 331.579 C 335.305 331.753,334.178 332.389,332.909 332.993 C 331.639 333.596,330.330 334.241,330.000 334.427 C 329.670 334.613,326.070 336.405,322.000 338.409 C 317.930 340.413,314.330 342.225,314.000 342.435 C 313.670 342.644,312.827 343.080,312.127 343.402 C 311.427 343.724,310.750 344.157,310.623 344.363 C 310.495 344.570,309.865 344.854,309.223 344.995 C 308.581 345.136,307.841 345.510,307.579 345.826 C 307.317 346.142,306.788 346.400,306.405 346.400 C 306.022 346.400,305.264 346.749,304.722 347.175 C 304.180 347.602,303.242 348.075,302.636 348.227 C 302.031 348.379,301.441 348.749,301.326 349.049 C 300.566 351.030,300.400 346.687,300.400 324.776 L 300.400 300.400 348.376 300.400 C 379.929 300.400,396.437 300.537,396.600 300.800 M198.552 349.703 C 198.281 349.870,187.381 349.960,174.330 349.903 L 150.600 349.800 150.496 326.000 C 150.439 312.910,150.478 301.976,150.583 301.703 C 150.690 301.423,161.329 311.745,174.908 325.303 C 190.964 341.333,198.879 349.502,198.552 349.703 M249.903 325.900 L 249.800 349.800 225.866 349.903 C 208.858 349.976,201.973 349.881,202.075 349.574 C 202.275 348.974,249.281 302.000,249.682 302.000 C 249.860 302.000,249.960 312.755,249.903 325.900 M393.818 314.900 C 390.820 320.895,388.211 326.070,388.021 326.400 C 386.886 328.373,351.594 399.469,351.597 399.778 C 351.599 399.985,352.050 399.545,352.600 398.800 C 353.150 398.055,353.600 397.142,353.600 396.771 C 353.600 396.401,353.852 395.889,354.161 395.633 C 354.469 395.377,354.840 394.694,354.986 394.115 C 355.131 393.537,355.598 392.620,356.025 392.078 C 356.451 391.536,356.800 390.830,356.800 390.509 C 356.800 390.189,357.160 389.469,357.600 388.909 C 358.040 388.350,358.400 387.578,358.400 387.195 C 358.400 386.812,358.658 386.283,358.974 386.021 C 359.290 385.759,359.662 385.030,359.800 384.400 C 359.938 383.770,360.298 383.050,360.600 382.800 C 360.902 382.550,361.262 381.830,361.400 381.200 C 361.538 380.570,361.910 379.841,362.226 379.579 C 362.542 379.317,362.800 378.702,362.800 378.213 C 362.800 377.724,363.160 376.998,363.600 376.600 C 364.040 376.202,364.400 375.557,364.400 375.167 C 364.400 374.776,364.630 374.219,364.912 373.929 C 365.194 373.638,365.934 372.320,366.557 371.000 C 367.180 369.680,367.843 368.330,368.031 368.000 C 368.219 367.670,368.936 366.230,369.625 364.800 C 370.314 363.370,371.040 361.930,371.240 361.600 C 371.439 361.270,371.781 360.550,372.001 360.000 C 372.220 359.450,372.580 358.730,372.801 358.400 C 373.021 358.070,373.391 357.350,373.622 356.800 C 373.853 356.250,374.392 355.068,374.821 354.174 C 375.249 353.279,375.600 352.354,375.600 352.117 C 375.600 351.880,375.853 351.588,376.162 351.470 C 376.472 351.351,376.843 350.714,376.988 350.055 C 377.133 349.395,377.498 348.650,377.800 348.400 C 378.102 348.150,378.462 347.430,378.600 346.800 C 378.738 346.170,379.092 345.455,379.386 345.211 C 379.681 344.967,380.043 344.281,380.192 343.688 C 380.341 343.094,380.588 342.516,380.741 342.404 C 381.131 342.118,383.200 338.013,383.200 337.526 C 383.200 337.306,383.560 336.669,384.000 336.109 C 384.440 335.550,384.800 334.830,384.800 334.509 C 384.800 334.189,385.160 333.469,385.600 332.909 C 386.040 332.350,386.400 331.578,386.400 331.195 C 386.400 330.812,386.665 330.278,386.989 330.009 C 387.314 329.740,387.694 328.908,387.834 328.160 C 387.974 327.412,388.227 326.800,388.396 326.800 C 388.565 326.800,388.938 326.215,389.224 325.500 C 389.511 324.785,390.073 323.771,390.473 323.246 C 390.873 322.721,391.200 321.978,391.200 321.595 C 391.200 321.212,391.452 320.689,391.761 320.433 C 392.069 320.177,392.443 319.480,392.592 318.884 C 392.741 318.288,393.097 317.530,393.384 317.200 C 393.671 316.870,394.041 316.150,394.207 315.600 C 394.372 315.050,394.625 314.510,394.769 314.400 C 395.131 314.124,398.689 306.807,399.001 305.700 C 399.140 305.205,399.422 304.800,399.627 304.800 C 399.832 304.800,400.000 304.620,400.000 304.400 C 400.000 302.950,398.632 305.273,393.818 314.900 M0.000 351.600 C 0.000 351.820,0.315 351.998,0.700 351.995 C 1.292 351.991,7.280 354.832,9.200 356.027 C 9.530 356.232,10.250 356.580,10.800 356.799 C 11.350 357.019,12.070 357.379,12.400 357.599 C 12.730 357.820,13.450 358.180,14.000 358.399 C 14.550 358.619,15.270 358.979,15.600 359.199 C 15.930 359.420,16.650 359.780,17.200 359.999 C 17.750 360.219,18.470 360.572,18.800 360.784 C 19.790 361.420,23.845 363.200,24.305 363.200 C 24.541 363.200,24.793 363.347,24.867 363.526 C 24.940 363.706,27.700 365.185,31.000 366.813 C 34.300 368.441,37.238 370.004,37.529 370.287 C 37.819 370.569,38.273 370.800,38.536 370.800 C 38.800 370.800,40.002 371.337,41.208 371.993 C 42.414 372.650,43.850 373.379,44.400 373.614 C 44.950 373.849,46.132 374.392,47.026 374.821 C 47.921 375.249,48.792 375.600,48.963 375.600 C 49.134 375.600,49.731 375.960,50.291 376.400 C 50.850 376.840,51.644 377.200,52.054 377.200 C 52.464 377.200,52.800 377.386,52.800 377.613 C 52.800 377.839,53.115 378.134,53.500 378.268 C 54.214 378.516,61.710 382.142,62.800 382.767 C 63.130 382.956,64.439 383.604,65.709 384.207 C 66.978 384.811,68.105 385.447,68.213 385.621 C 68.321 385.796,68.935 386.054,69.577 386.195 C 70.219 386.336,70.950 386.698,71.200 387.000 C 71.450 387.302,72.228 387.674,72.928 387.826 C 73.627 387.979,74.629 388.441,75.154 388.852 C 75.679 389.263,76.433 389.600,76.830 389.600 C 77.228 389.600,77.668 389.786,77.808 390.013 C 77.948 390.240,79.354 391.060,80.932 391.835 C 82.509 392.611,84.070 393.415,84.400 393.623 C 84.730 393.831,85.450 394.180,86.000 394.399 C 86.550 394.619,87.270 394.971,87.600 395.183 C 87.930 395.395,89.416 396.135,90.903 396.828 C 92.390 397.520,93.706 398.247,93.827 398.443 C 93.948 398.639,94.384 398.800,94.795 398.800 C 95.206 398.800,95.813 399.070,96.143 399.400 C 96.830 400.087,97.200 400.166,97.200 399.625 C 97.200 399.419,93.015 397.152,87.900 394.587 C 82.785 392.022,78.330 389.761,78.000 389.562 C 77.670 389.363,76.950 389.020,76.400 388.801 C 75.850 388.581,75.130 388.235,74.800 388.031 C 74.470 387.827,69.610 385.375,64.000 382.583 C 58.390 379.791,53.530 377.348,53.200 377.153 C 52.870 376.959,52.150 376.620,51.600 376.401 C 51.050 376.181,50.330 375.830,50.000 375.621 C 49.670 375.411,44.810 372.964,39.200 370.183 C 33.590 367.402,28.730 364.972,28.400 364.784 C 27.783 364.432,26.163 363.609,24.400 362.754 C 21.687 361.436,3.645 352.413,2.600 351.851 C 1.245 351.122,0.000 351.001,0.000 351.600 M300.184 352.100 C 300.078 352.375,300.041 363.310,300.099 376.400 L 300.206 400.200 300.303 376.100 C 300.356 362.845,300.475 352.000,300.568 352.000 C 300.926 352.000,348.000 399.258,348.000 399.618 C 348.000 399.828,348.180 400.000,348.400 400.000 C 349.442 400.000,347.272 397.720,325.007 375.425 C 301.846 352.233,300.586 351.049,300.184 352.100 " stroke="none" fill="#dcdbbc" fill-rule="evenodd"></path><path id="path3" d="M250.988 75.000 C 250.988 88.420,251.038 93.852,251.100 87.071 C 251.161 80.290,251.161 69.310,251.100 62.671 C 251.038 56.032,250.988 61.580,250.988 75.000 M397.375 53.700 L 396.200 55.000 397.500 53.825 C 398.215 53.179,398.800 52.594,398.800 52.525 C 398.800 52.216,398.470 52.488,397.375 53.700 M394.181 56.900 L 392.600 58.600 394.300 57.019 C 395.881 55.548,396.184 55.200,395.881 55.200 C 395.816 55.200,395.051 55.965,394.181 56.900 M390.185 60.900 L 388.200 63.000 390.300 61.015 C 392.251 59.171,392.583 58.800,392.285 58.800 C 392.222 58.800,391.277 59.745,390.185 60.900 M384.778 66.300 L 383.400 67.800 384.900 66.422 C 386.296 65.138,386.584 64.800,386.278 64.800 C 386.212 64.800,385.537 65.475,384.778 66.300 M381.578 69.500 L 380.200 71.000 381.700 69.622 C 382.525 68.863,383.200 68.188,383.200 68.122 C 383.200 67.816,382.862 68.104,381.578 69.500 M377.785 73.300 L 375.800 75.400 377.900 73.415 C 379.851 71.571,380.183 71.200,379.885 71.200 C 379.822 71.200,378.877 72.145,377.785 73.300 M372.985 78.100 L 371.000 80.200 373.100 78.215 C 375.051 76.371,375.383 76.000,375.085 76.000 C 375.022 76.000,374.077 76.945,372.985 78.100 M369.178 81.900 L 367.800 83.400 369.300 82.022 C 370.696 80.738,370.984 80.400,370.678 80.400 C 370.612 80.400,369.937 81.075,369.178 81.900 M365.978 85.100 L 364.600 86.600 366.100 85.222 C 367.496 83.938,367.784 83.600,367.478 83.600 C 367.412 83.600,366.737 84.275,365.978 85.100 M360.585 90.500 L 358.600 92.600 360.700 90.615 C 362.651 88.771,362.983 88.400,362.685 88.400 C 362.622 88.400,361.677 89.345,360.585 90.500 M356.581 94.500 L 355.000 96.200 356.700 94.619 C 357.635 93.749,358.400 92.984,358.400 92.919 C 358.400 92.616,358.052 92.919,356.581 94.500 M353.375 97.700 L 352.200 99.000 353.500 97.825 C 354.215 97.179,354.800 96.594,354.800 96.525 C 354.800 96.216,354.470 96.488,353.375 97.700 M175.788 150.000 C 175.788 163.530,175.838 169.065,175.900 162.300 C 175.961 155.535,175.961 144.465,175.900 137.700 C 175.838 130.935,175.788 136.470,175.788 150.000 M275.788 150.000 C 275.788 163.530,275.838 169.065,275.900 162.300 C 275.961 155.535,275.961 144.465,275.900 137.700 C 275.838 130.935,275.788 136.470,275.788 150.000 M350.994 200.200 C 350.994 227.480,351.042 238.581,351.100 224.869 C 351.158 211.157,351.158 188.837,351.100 175.269 C 351.042 161.701,350.994 172.920,350.994 200.200 M137.700 175.900 C 144.465 175.961,155.535 175.961,162.300 175.900 C 169.065 175.838,163.530 175.788,150.000 175.788 C 136.470 175.788,130.935 175.838,137.700 175.900 M237.700 175.900 C 244.465 175.961,255.535 175.961,262.300 175.900 C 269.065 175.838,263.530 175.788,250.000 175.788 C 236.470 175.788,230.935 175.838,237.700 175.900 M348.400 199.319 C 348.400 199.394,348.850 199.847,349.400 200.325 C 349.950 200.803,350.400 201.037,350.400 200.843 C 350.400 200.650,349.950 200.197,349.400 199.837 C 348.850 199.476,348.400 199.243,348.400 199.319 M343.792 206.500 L 340.200 210.200 343.900 206.608 C 347.336 203.272,347.782 202.800,347.492 202.800 C 347.432 202.800,345.767 204.465,343.792 206.500 M175.788 250.000 C 175.788 263.530,175.838 269.065,175.900 262.300 C 175.961 255.535,175.961 244.465,175.900 237.700 C 175.838 230.935,175.788 236.470,175.788 250.000 M275.788 250.000 C 275.788 263.530,275.838 269.065,275.900 262.300 C 275.961 255.535,275.961 244.465,275.900 237.700 C 275.838 230.935,275.788 236.470,275.788 250.000 M306.192 244.100 L 302.600 247.800 306.300 244.208 C 308.335 242.233,310.000 240.568,310.000 240.508 C 310.000 240.218,309.528 240.664,306.192 244.100 M62.929 251.100 C 69.710 251.161,80.690 251.161,87.329 251.100 C 93.968 251.038,88.420 250.988,75.000 250.988 C 61.580 250.988,56.148 251.038,62.929 251.100 M300.662 251.100 C 300.493 251.372,318.225 251.368,341.000 251.091 C 345.840 251.032,338.786 250.943,325.324 250.892 C 311.862 250.841,300.764 250.935,300.662 251.100 M137.700 275.900 C 144.465 275.961,155.535 275.961,162.300 275.900 C 169.065 275.838,163.530 275.788,150.000 275.788 C 136.470 275.788,130.935 275.838,137.700 275.900 M237.700 275.900 C 244.465 275.961,255.535 275.961,262.300 275.900 C 269.065 275.838,263.530 275.788,250.000 275.788 C 236.470 275.788,230.935 275.838,237.700 275.900 M250.984 300.900 C 250.879 301.175,250.839 312.290,250.896 325.600 L 251.000 349.800 251.200 325.100 C 251.310 311.515,251.349 300.400,251.287 300.400 C 251.226 300.400,251.089 300.625,250.984 300.900 M243.792 306.500 L 240.200 310.200 243.900 306.608 C 247.336 303.272,247.782 302.800,247.492 302.800 C 247.432 302.800,245.767 304.465,243.792 306.500 M206.192 344.100 L 202.600 347.800 206.300 344.208 C 208.335 342.233,210.000 340.568,210.000 340.508 C 210.000 340.218,209.528 340.664,206.192 344.100 M199.837 349.400 C 200.197 349.950,200.650 350.400,200.843 350.400 C 201.037 350.400,200.803 349.950,200.325 349.400 C 199.847 348.850,199.394 348.400,199.319 348.400 C 199.243 348.400,199.476 348.850,199.837 349.400 M175.269 351.100 C 188.837 351.158,211.157 351.158,224.869 351.100 C 238.581 351.042,227.480 350.994,200.200 350.994 C 172.920 350.994,161.701 351.042,175.269 351.100 " stroke="none" fill="#e4dcc4" fill-rule="evenodd"></path><path id="path4" d="M50.000 1.214 C 49.670 1.872,38.510 24.180,25.200 50.788 C 11.890 77.396,0.775 99.173,0.500 99.183 C 0.225 99.192,0.000 99.393,0.000 99.628 C 0.000 100.743,1.782 99.743,2.038 98.484 C 2.185 97.760,2.597 96.845,2.953 96.452 C 3.309 96.059,3.600 95.551,3.600 95.324 C 3.600 95.097,4.498 93.221,5.596 91.155 C 6.694 89.090,7.783 86.950,8.016 86.400 C 8.249 85.850,9.420 83.454,10.619 81.075 C 11.819 78.697,12.800 76.505,12.800 76.204 C 12.800 75.903,13.036 75.419,13.325 75.129 C 13.614 74.838,15.242 71.810,16.944 68.400 C 18.645 64.990,20.192 61.930,20.380 61.600 C 21.546 59.562,25.600 51.001,25.600 50.578 C 25.600 50.297,25.757 50.007,25.950 49.933 C 26.142 49.860,27.679 47.010,29.364 43.600 C 31.050 40.190,32.582 37.130,32.769 36.800 C 32.956 36.470,34.230 33.860,35.600 31.000 C 36.970 28.140,38.246 25.530,38.436 25.200 C 38.626 24.870,41.350 19.483,44.491 13.229 C 47.631 6.975,50.386 1.798,50.614 1.725 C 50.841 1.651,61.901 12.470,75.190 25.767 C 96.546 47.134,99.412 49.866,99.864 49.272 C 100.267 48.741,100.357 43.480,100.290 24.200 L 100.206 -0.200 100.100 23.983 C 100.031 39.676,99.851 48.309,99.587 48.573 C 99.140 49.020,51.200 1.394,51.200 0.501 C 51.200 -0.370,50.622 -0.027,50.000 1.214 M300.063 1.546 C 299.723 2.681,299.600 15.938,299.600 51.346 L 299.600 99.600 275.800 99.600 L 252.000 99.600 251.994 75.300 C 251.990 60.686,251.837 50.761,251.608 50.400 C 251.114 49.617,151.083 49.267,150.147 50.044 C 149.695 50.419,149.600 54.782,149.600 75.049 L 149.600 99.600 125.000 99.600 L 100.400 99.600 100.400 75.649 C 100.400 55.031,100.318 51.630,99.810 51.208 C 99.276 50.765,93.675 53.013,90.800 54.824 C 90.470 55.032,89.750 55.381,89.200 55.601 C 88.650 55.820,87.930 56.177,87.600 56.394 C 87.270 56.611,85.650 57.438,84.000 58.232 C 82.350 59.026,80.940 59.839,80.867 60.038 C 80.793 60.237,80.413 60.400,80.021 60.400 C 79.629 60.400,78.879 60.737,78.354 61.148 C 77.829 61.559,76.830 62.020,76.133 62.172 C 75.437 62.324,74.767 62.708,74.646 63.024 C 74.524 63.341,74.104 63.603,73.713 63.606 C 73.321 63.609,72.550 63.861,72.000 64.166 C 71.450 64.471,67.850 66.281,64.000 68.189 C 60.150 70.096,56.730 71.831,56.400 72.042 C 56.070 72.254,55.125 72.718,54.300 73.074 C 53.475 73.430,52.800 73.866,52.800 74.043 C 52.800 74.219,52.156 74.485,51.368 74.632 C 50.581 74.780,49.848 75.131,49.740 75.411 C 49.633 75.692,48.918 76.039,48.151 76.183 C 47.385 76.327,46.666 76.684,46.553 76.977 C 46.441 77.270,45.842 77.612,45.223 77.735 C 44.603 77.859,43.840 78.218,43.526 78.532 C 43.212 78.846,42.382 79.228,41.682 79.382 C 40.982 79.536,40.305 79.830,40.177 80.037 C 40.050 80.243,39.373 80.676,38.673 80.998 C 37.973 81.320,37.130 81.751,36.800 81.954 C 36.470 82.158,34.310 83.250,32.000 84.381 C 29.690 85.512,27.530 86.582,27.200 86.759 C 26.870 86.937,25.700 87.495,24.600 88.000 C 23.500 88.505,22.330 89.069,22.000 89.254 C 20.430 90.132,16.393 92.000,16.066 92.000 C 15.863 92.000,15.483 92.258,15.221 92.574 C 14.959 92.890,14.205 93.267,13.545 93.412 C 12.886 93.557,12.249 93.928,12.130 94.238 C 12.012 94.547,11.692 94.800,11.421 94.800 C 11.006 94.800,7.772 96.341,5.600 97.574 C 5.270 97.761,4.505 98.110,3.900 98.349 C 2.570 98.874,2.465 99.817,3.700 100.148 C 4.195 100.281,25.975 100.392,52.100 100.395 L 99.600 100.400 99.600 125.000 L 99.600 149.600 75.049 149.600 C 54.782 149.600,50.419 149.695,50.044 150.147 C 49.267 151.083,49.617 251.114,50.400 251.608 C 50.761 251.837,60.686 251.990,75.300 251.994 L 99.600 252.000 99.600 275.800 L 99.600 299.600 75.500 299.617 C 62.245 299.626,39.880 299.666,25.800 299.706 L 0.200 299.778 24.783 299.892 C 38.712 299.957,49.523 300.163,49.727 300.367 C 49.943 300.583,40.196 310.620,25.644 325.169 C 12.200 338.611,1.200 349.773,1.200 349.975 C 1.200 350.176,0.885 350.409,0.500 350.491 C 0.049 350.587,0.370 350.830,1.400 351.172 C 2.280 351.465,3.193 351.856,3.428 352.042 C 4.121 352.587,23.746 362.400,24.145 362.400 C 24.754 362.400,22.667 360.930,21.600 360.608 C 21.050 360.441,20.330 360.078,20.000 359.800 C 19.670 359.522,18.950 359.162,18.400 359.000 C 17.850 358.838,17.130 358.478,16.800 358.200 C 16.470 357.922,15.750 357.561,15.200 357.398 C 14.650 357.235,13.990 356.935,13.734 356.730 C 12.897 356.063,6.308 352.800,5.796 352.800 C 5.522 352.800,5.073 352.529,4.799 352.198 C 4.524 351.868,3.737 351.447,3.050 351.265 C 2.151 351.026,1.836 350.730,1.930 350.212 C 2.067 349.455,6.893 344.452,19.357 332.147 C 22.571 328.975,25.200 326.199,25.200 325.977 C 25.200 325.756,25.494 325.462,25.853 325.324 C 26.392 325.118,28.856 322.702,38.257 313.168 C 48.147 303.138,51.200 300.583,51.200 302.339 C 51.200 302.745,51.560 303.493,52.000 304.000 C 52.440 304.507,52.800 305.233,52.800 305.612 C 52.800 305.992,53.058 306.517,53.374 306.779 C 53.690 307.041,54.064 307.781,54.205 308.423 C 54.346 309.065,54.635 309.698,54.848 309.829 C 55.060 309.961,55.516 310.773,55.860 311.634 C 56.205 312.495,56.619 313.200,56.780 313.200 C 56.941 313.200,57.289 313.920,57.553 314.800 C 57.816 315.680,58.205 316.400,58.416 316.400 C 58.627 316.400,58.800 316.736,58.800 317.146 C 58.800 317.556,59.160 318.350,59.600 318.909 C 60.040 319.469,60.400 320.189,60.400 320.509 C 60.400 320.830,60.760 321.550,61.200 322.109 C 61.640 322.669,62.006 323.278,62.013 323.463 C 62.019 323.648,62.468 324.700,63.009 325.800 C 63.550 326.900,63.994 328.010,63.996 328.267 C 63.998 328.523,64.144 328.793,64.319 328.867 C 64.495 328.940,65.611 330.980,66.800 333.400 C 67.989 335.820,69.105 337.860,69.281 337.933 C 69.456 338.007,69.600 338.262,69.600 338.502 C 69.600 339.030,72.030 344.119,72.417 344.400 C 72.568 344.510,72.828 345.050,72.993 345.600 C 73.159 346.150,73.522 346.870,73.800 347.200 C 74.078 347.530,74.438 348.250,74.600 348.800 C 74.762 349.350,75.121 350.070,75.397 350.400 C 75.673 350.730,76.116 351.675,76.380 352.500 C 76.645 353.325,77.014 354.000,77.199 354.000 C 77.385 354.000,77.652 354.528,77.794 355.172 C 77.936 355.817,78.310 356.559,78.626 356.821 C 78.942 357.083,79.200 357.517,79.200 357.785 C 79.200 358.218,81.030 362.016,82.002 363.600 C 82.204 363.930,82.856 365.280,83.452 366.600 C 84.047 367.920,84.659 369.090,84.813 369.200 C 84.966 369.310,85.231 369.850,85.401 370.400 C 85.571 370.950,86.045 371.829,86.455 372.354 C 86.865 372.879,87.200 373.622,87.200 374.005 C 87.200 374.388,87.441 374.902,87.735 375.146 C 88.030 375.391,88.487 376.313,88.751 377.195 C 89.016 378.078,89.391 378.800,89.584 378.800 C 89.778 378.800,90.052 379.328,90.194 379.972 C 90.336 380.617,90.698 381.350,91.000 381.600 C 91.302 381.850,91.662 382.570,91.800 383.200 C 91.938 383.830,92.298 384.550,92.600 384.800 C 92.902 385.050,93.267 385.795,93.412 386.455 C 93.557 387.114,93.911 387.744,94.198 387.855 C 94.486 387.965,94.834 388.655,94.971 389.388 C 95.109 390.120,95.475 390.930,95.785 391.187 C 96.095 391.445,96.467 392.195,96.612 392.855 C 96.757 393.514,97.108 394.143,97.393 394.253 C 97.677 394.362,98.017 394.984,98.147 395.635 C 98.380 396.801,99.364 397.569,99.917 397.016 C 100.073 396.861,100.290 375.103,100.400 348.667 L 100.600 300.600 125.091 300.497 L 149.583 300.394 149.691 325.812 C 149.786 347.888,149.879 351.280,150.400 351.611 C 151.670 352.419,250.267 351.905,251.086 351.086 C 251.754 350.418,251.807 348.754,251.909 325.386 L 252.018 300.400 275.809 300.400 L 299.600 300.400 299.614 325.300 C 299.622 338.995,299.663 361.360,299.704 375.000 L 299.780 399.800 299.893 375.817 C 299.967 360.268,300.149 351.691,300.413 351.427 C 300.860 350.980,348.800 398.606,348.800 399.499 C 348.800 399.774,348.980 400.000,349.200 400.000 C 350.407 400.000,347.570 396.998,325.700 375.127 C 312.555 361.981,301.800 350.995,301.800 350.714 C 301.800 350.432,304.770 348.733,308.400 346.938 C 312.030 345.143,315.217 343.477,315.483 343.237 C 315.749 342.997,316.071 342.800,316.200 342.800 C 316.443 342.800,320.949 340.653,322.000 340.037 C 322.330 339.844,323.050 339.488,323.600 339.246 C 324.150 339.004,324.870 338.630,325.200 338.416 C 325.530 338.201,326.970 337.478,328.400 336.807 C 329.830 336.137,331.270 335.440,331.600 335.257 C 332.157 334.948,332.945 334.538,334.700 333.643 C 335.085 333.447,335.850 333.088,336.400 332.846 C 336.950 332.604,337.715 332.225,338.100 332.003 C 339.732 331.063,343.608 329.105,345.200 328.414 C 345.750 328.176,346.920 327.544,347.800 327.010 C 348.680 326.475,349.670 325.919,350.000 325.774 C 350.330 325.629,355.146 323.235,360.703 320.455 C 366.259 317.675,371.299 315.166,371.903 314.879 C 372.506 314.593,373.270 314.191,373.600 313.987 C 374.349 313.522,377.863 311.789,379.200 311.224 C 379.750 310.992,380.470 310.621,380.800 310.401 C 381.130 310.180,381.850 309.820,382.400 309.601 C 382.950 309.381,383.670 309.051,384.000 308.866 C 385.073 308.264,386.930 307.318,390.800 305.399 C 392.890 304.363,394.870 303.352,395.200 303.153 C 395.530 302.953,396.565 302.439,397.500 302.009 C 402.631 299.653,401.565 299.600,348.774 299.600 L 300.400 299.600 300.400 275.809 L 300.400 252.018 325.386 251.909 C 348.754 251.807,350.418 251.754,351.086 251.086 C 351.905 250.267,352.419 151.670,351.611 150.400 C 351.280 149.879,347.888 149.786,325.812 149.691 L 300.394 149.583 300.497 125.091 L 300.600 100.600 324.963 100.497 C 351.040 100.386,351.858 100.315,349.860 98.318 C 349.564 98.021,349.100 97.108,348.829 96.289 C 348.559 95.470,348.200 94.800,348.032 94.800 C 347.864 94.800,347.511 94.080,347.247 93.200 C 346.984 92.320,346.618 91.600,346.434 91.600 C 346.250 91.600,345.996 91.082,345.870 90.448 C 345.743 89.815,345.369 89.026,345.039 88.697 C 344.709 88.367,344.323 87.632,344.181 87.065 C 344.038 86.497,343.669 85.823,343.361 85.567 C 343.052 85.311,342.800 84.937,342.800 84.734 C 342.800 84.116,340.436 79.269,340.005 79.003 C 339.782 78.865,339.600 78.403,339.600 77.976 C 339.600 77.549,339.240 76.840,338.800 76.400 C 338.360 75.960,338.000 75.388,338.000 75.128 C 338.000 74.567,331.175 60.691,330.754 60.396 C 330.594 60.284,330.341 59.706,330.192 59.112 C 330.043 58.519,329.669 57.823,329.361 57.567 C 329.052 57.311,328.800 56.788,328.800 56.405 C 328.800 56.022,328.451 55.264,328.025 54.722 C 327.598 54.180,327.125 53.242,326.973 52.636 C 326.821 52.031,326.468 51.447,326.188 51.340 C 325.908 51.233,325.566 50.545,325.429 49.812 C 325.291 49.080,324.914 48.260,324.589 47.991 C 324.265 47.722,324.000 47.188,324.000 46.805 C 324.000 46.422,323.651 45.664,323.225 45.122 C 322.798 44.580,322.331 43.663,322.186 43.085 C 322.040 42.506,321.669 41.823,321.361 41.567 C 321.052 41.311,320.800 40.878,320.800 40.604 C 320.800 40.084,317.485 33.308,316.878 32.587 C 316.687 32.359,316.411 31.697,316.264 31.115 C 316.118 30.532,315.753 29.810,315.452 29.509 C 315.152 29.209,314.771 28.521,314.605 27.981 C 314.440 27.442,314.071 26.730,313.784 26.400 C 313.497 26.070,313.141 25.312,312.992 24.716 C 312.843 24.120,312.481 23.433,312.186 23.189 C 311.892 22.945,311.538 22.230,311.400 21.600 C 311.262 20.970,310.902 20.250,310.600 20.000 C 310.298 19.750,309.938 19.030,309.800 18.400 C 309.662 17.770,309.290 17.041,308.974 16.779 C 308.658 16.517,308.400 16.069,308.400 15.785 C 308.400 15.500,307.770 14.127,307.000 12.734 C 306.230 11.340,305.496 9.930,305.368 9.600 C 305.241 9.270,304.399 7.517,303.497 5.705 C 301.463 1.617,301.617 1.463,305.705 3.497 C 307.517 4.399,309.270 5.241,309.600 5.368 C 309.930 5.496,311.340 6.230,312.734 7.000 C 314.127 7.770,315.500 8.400,315.785 8.400 C 316.069 8.400,316.511 8.652,316.767 8.961 C 317.023 9.269,317.697 9.638,318.265 9.781 C 318.832 9.923,319.567 10.309,319.897 10.639 C 320.226 10.969,321.015 11.343,321.648 11.470 C 322.282 11.596,322.800 11.850,322.800 12.034 C 322.800 12.218,323.520 12.584,324.400 12.847 C 325.280 13.111,326.000 13.464,326.000 13.632 C 326.000 13.800,326.675 14.157,327.500 14.426 C 328.325 14.694,329.144 15.158,329.320 15.457 C 329.496 15.755,329.830 16.000,330.062 16.000 C 330.693 16.000,338.731 19.965,339.008 20.413 C 339.140 20.626,339.584 20.800,339.995 20.800 C 340.406 20.800,340.986 21.043,341.282 21.340 C 341.579 21.636,342.492 22.100,343.311 22.371 C 344.130 22.641,344.800 23.028,344.800 23.231 C 344.800 23.434,345.028 23.600,345.306 23.600 C 345.584 23.600,346.439 23.935,347.206 24.344 C 347.973 24.753,349.050 25.228,349.600 25.399 C 350.150 25.570,351.029 26.045,351.554 26.455 C 352.079 26.865,352.844 27.200,353.254 27.200 C 353.664 27.200,354.000 27.384,354.000 27.610 C 354.000 27.835,354.495 28.206,355.100 28.434 C 356.099 28.810,359.306 30.357,360.800 31.183 C 361.130 31.365,361.850 31.712,362.400 31.954 C 362.950 32.196,363.670 32.556,364.000 32.754 C 364.330 32.952,365.050 33.312,365.600 33.554 C 366.150 33.796,366.915 34.175,367.300 34.397 C 368.990 35.370,369.533 35.653,371.800 36.745 C 373.120 37.381,374.605 38.026,375.100 38.178 C 375.595 38.330,376.000 38.607,376.000 38.795 C 376.000 38.983,376.525 39.252,377.167 39.393 C 377.809 39.534,378.737 39.998,379.228 40.425 C 379.720 40.851,380.323 41.200,380.569 41.200 C 380.815 41.200,382.002 41.737,383.208 42.393 C 384.414 43.050,385.850 43.769,386.400 43.993 C 386.950 44.217,387.670 44.580,388.000 44.801 C 388.330 45.021,389.050 45.381,389.600 45.601 C 390.150 45.820,390.870 46.168,391.200 46.373 C 392.992 47.489,399.086 50.407,399.600 50.396 C 400.164 50.384,395.426 47.913,380.800 40.589 C 377.390 38.882,373.610 36.986,372.400 36.375 C 371.190 35.765,369.030 34.704,367.600 34.017 C 366.170 33.330,364.730 32.611,364.400 32.418 C 364.070 32.226,349.816 25.078,332.724 16.534 C 315.632 7.990,301.637 0.775,301.624 0.500 C 301.570 -0.618,300.496 0.103,300.063 1.546 M302.149 4.104 C 302.782 5.477,304.119 8.220,305.122 10.200 C 306.124 12.180,307.553 15.060,308.297 16.600 C 309.041 18.140,309.808 19.670,310.002 20.000 C 310.195 20.330,310.911 21.770,311.593 23.200 C 312.274 24.630,312.989 26.070,313.181 26.400 C 313.373 26.730,316.167 32.310,319.390 38.800 C 322.613 45.290,325.407 50.870,325.599 51.200 C 325.791 51.530,326.871 53.690,327.999 56.000 C 329.127 58.310,330.203 60.470,330.390 60.800 C 330.777 61.484,337.223 74.479,337.930 76.000 C 338.185 76.550,338.575 77.315,338.797 77.700 C 339.820 79.478,340.066 79.960,341.191 82.400 C 341.850 83.830,342.560 85.270,342.769 85.600 C 342.978 85.930,344.071 88.090,345.199 90.400 C 346.327 92.710,347.413 94.870,347.613 95.200 C 348.654 96.923,349.578 99.382,349.292 99.668 C 349.113 99.847,337.994 100.040,324.583 100.097 L 300.200 100.200 300.200 125.000 L 300.200 149.800 325.163 149.903 C 342.791 149.976,350.283 150.137,350.663 150.452 C 351.690 151.305,351.433 249.367,350.400 250.400 C 349.618 251.182,349.067 251.200,325.249 251.200 C 305.187 251.200,300.818 251.296,300.446 251.745 C 300.118 252.140,300.022 258.832,300.097 276.045 L 300.200 299.800 348.967 300.000 C 384.125 300.144,397.775 300.324,397.881 300.643 C 397.962 300.887,393.297 303.471,387.514 306.385 C 381.731 309.300,376.730 311.838,376.400 312.026 C 376.070 312.215,374.630 312.926,373.200 313.607 C 371.770 314.289,370.330 315.013,370.000 315.218 C 369.670 315.423,368.192 316.177,366.715 316.895 C 363.109 318.648,336.758 331.954,336.000 332.405 C 335.670 332.602,333.510 333.684,331.200 334.811 C 328.890 335.937,326.730 337.007,326.400 337.188 C 326.070 337.369,324.570 338.120,323.067 338.858 C 316.493 342.086,302.903 349.084,301.879 349.769 C 300.008 351.022,300.012 351.067,299.903 324.983 L 299.800 300.200 276.045 300.097 C 258.832 300.022,252.140 300.118,251.745 300.446 C 251.296 300.818,251.200 305.187,251.200 325.249 C 251.200 349.067,251.182 349.618,250.400 350.400 C 249.367 351.433,151.305 351.690,150.452 350.663 C 150.137 350.283,149.976 342.791,149.903 325.163 L 149.800 300.200 125.000 300.200 L 100.200 300.200 100.000 348.167 C 99.869 379.617,99.662 396.177,99.400 396.261 C 99.180 396.331,98.040 394.456,96.867 392.094 C 95.693 389.732,94.568 387.530,94.366 387.200 C 94.165 386.870,93.812 386.150,93.583 385.600 C 93.353 385.050,92.909 384.150,92.594 383.600 C 92.280 383.050,91.561 381.610,90.997 380.400 C 90.433 379.190,89.798 377.930,89.586 377.600 C 89.373 377.270,89.020 376.550,88.801 376.000 C 88.581 375.450,88.240 374.730,88.043 374.400 C 87.845 374.070,87.080 372.583,86.342 371.095 C 85.604 369.607,84.508 367.447,83.907 366.295 C 83.305 365.143,82.810 363.988,82.807 363.729 C 82.803 363.469,82.572 363.019,82.293 362.729 C 82.014 362.438,80.198 358.960,78.256 355.000 C 76.315 351.040,74.576 347.530,74.393 347.200 C 70.714 340.572,51.160 300.680,51.449 300.391 C 51.684 300.156,61.142 299.966,75.817 299.903 L 99.800 299.800 99.911 276.400 C 99.971 263.530,99.923 252.595,99.803 252.100 L 99.585 251.200 75.241 251.200 C 55.229 251.200,50.818 251.103,50.447 250.657 C 50.117 250.260,50.024 236.744,50.098 200.157 L 50.200 150.200 75.000 150.000 L 99.800 149.800 99.800 125.000 L 99.800 100.200 51.833 100.000 C 20.370 99.869,3.827 99.662,3.753 99.400 C 3.621 98.937,98.251 51.590,99.297 51.596 C 99.950 51.600,100.000 53.097,100.097 75.700 L 100.200 99.800 125.000 99.800 L 149.800 99.800 150.000 75.000 L 150.200 50.200 200.157 50.098 C 236.744 50.024,250.260 50.117,250.657 50.447 C 251.103 50.818,251.200 55.229,251.200 75.241 L 251.200 99.585 252.100 99.803 C 252.595 99.923,263.530 99.971,276.400 99.911 L 299.800 99.800 300.006 50.800 C 300.119 23.850,300.254 1.755,300.306 1.700 C 300.673 1.311,301.148 1.929,302.149 4.104 M375.060 75.234 C 355.003 95.330,351.199 99.317,351.609 99.811 C 352.031 100.320,355.370 100.387,376.149 100.305 L 400.200 100.209 376.233 100.005 C 360.659 99.872,352.219 99.659,352.132 99.397 C 352.058 99.175,362.757 88.240,375.907 75.097 C 389.057 61.953,399.632 51.210,399.408 51.223 C 399.184 51.236,388.227 62.041,375.060 75.234 M176.114 75.437 C 158.097 93.453,152.412 99.362,152.837 99.631 C 153.680 100.165,247.885 100.110,248.215 99.576 C 248.515 99.090,201.276 51.625,200.477 51.610 C 200.189 51.604,189.226 62.327,176.114 75.437 M207.293 58.653 C 207.572 58.902,208.413 59.771,209.162 60.584 C 209.912 61.398,210.947 62.340,211.462 62.678 C 211.978 63.016,212.400 63.451,212.400 63.645 C 212.400 64.062,216.064 67.595,216.500 67.598 C 216.665 67.599,216.800 67.794,216.800 68.031 C 216.800 68.528,218.976 70.795,219.469 70.811 C 219.651 70.817,220.242 71.418,220.782 72.146 C 221.321 72.874,222.446 73.983,223.282 74.611 C 224.117 75.239,224.800 75.903,224.800 76.087 C 224.800 76.270,225.634 77.180,226.654 78.110 C 227.673 79.039,228.708 80.025,228.954 80.299 C 230.894 82.470,231.661 83.200,232.003 83.200 C 232.222 83.200,232.401 83.335,232.402 83.500 C 232.404 83.831,233.945 85.510,236.042 87.467 C 236.789 88.163,239.812 91.178,242.760 94.167 L 248.120 99.600 200.611 99.600 C 155.422 99.600,153.129 99.566,153.651 98.900 C 153.953 98.515,164.610 87.784,177.333 75.053 L 200.467 51.907 203.626 55.053 C 205.364 56.784,207.014 58.404,207.293 58.653 M125.467 125.467 C 125.133 125.800,125.110 174.101,125.443 174.967 C 125.762 175.799,174.292 175.948,175.120 175.120 C 175.948 174.292,175.799 125.762,174.967 125.443 C 174.101 125.110,125.800 125.133,125.467 125.467 M225.467 125.467 C 225.133 125.800,225.110 174.101,225.443 174.967 C 225.762 175.799,274.292 175.948,275.120 175.120 C 275.948 174.292,275.799 125.762,274.967 125.443 C 274.101 125.110,225.800 125.133,225.467 125.467 M174.800 150.200 L 174.800 174.800 150.200 174.800 L 125.600 174.800 125.600 150.200 L 125.600 125.600 150.200 125.600 L 174.800 125.600 174.800 150.200 M274.800 150.200 L 274.800 174.800 250.200 174.800 L 225.600 174.800 225.600 150.200 L 225.600 125.600 250.200 125.600 L 274.800 125.600 274.800 150.200 M300.198 152.500 C 300.078 152.995,300.031 174.730,300.092 200.800 L 300.203 248.200 300.302 200.300 C 300.356 173.955,300.535 152.403,300.700 152.406 C 300.865 152.409,302.301 153.714,303.892 155.306 C 305.482 156.898,307.012 158.404,307.292 158.653 C 307.571 158.902,308.413 159.771,309.162 160.584 C 309.912 161.398,310.947 162.340,311.462 162.678 C 311.978 163.016,312.400 163.451,312.400 163.645 C 312.400 164.062,316.064 167.595,316.500 167.598 C 316.665 167.599,316.800 167.794,316.800 168.031 C 316.800 168.528,318.976 170.795,319.469 170.811 C 319.651 170.817,320.242 171.418,320.782 172.146 C 321.321 172.874,322.446 173.983,323.282 174.611 C 324.117 175.239,324.800 175.903,324.800 176.087 C 324.800 176.270,325.634 177.180,326.654 178.110 C 327.673 179.039,328.708 180.025,328.954 180.299 C 330.894 182.470,331.661 183.200,332.003 183.200 C 332.222 183.200,332.401 183.335,332.402 183.500 C 332.404 183.834,333.980 185.547,336.042 187.457 C 338.793 190.004,348.879 200.455,348.742 200.615 C 348.296 201.137,307.059 242.402,304.021 245.367 C 301.422 247.904,300.442 249.117,300.630 249.567 C 300.859 250.117,300.921 250.122,301.105 249.600 C 301.406 248.747,348.991 201.200,349.544 201.200 C 350.461 201.200,349.583 200.285,325.500 176.159 C 299.701 150.314,300.537 151.096,300.198 152.500 M75.300 176.202 C 62.265 189.266,51.604 200.190,51.610 200.477 C 51.625 201.276,99.090 248.515,99.576 248.215 C 100.034 247.932,100.213 154.220,99.757 153.033 C 99.373 152.033,100.143 151.303,75.300 176.202 M99.600 200.660 L 99.600 248.120 94.167 242.760 C 91.178 239.812,88.163 236.789,87.467 236.042 C 85.510 233.945,83.831 232.404,83.500 232.402 C 83.335 232.401,83.200 232.222,83.200 232.003 C 83.200 231.661,82.470 230.894,80.299 228.954 C 80.025 228.708,79.039 227.673,78.110 226.654 C 77.180 225.634,76.270 224.800,76.087 224.800 C 75.903 224.800,75.239 224.117,74.611 223.282 C 73.983 222.446,72.874 221.321,72.146 220.782 C 71.418 220.242,70.817 219.651,70.811 219.469 C 70.795 218.976,68.528 216.800,68.031 216.800 C 67.794 216.800,67.599 216.665,67.598 216.500 C 67.595 216.064,64.062 212.400,63.645 212.400 C 63.451 212.400,63.016 211.978,62.678 211.462 C 62.340 210.947,61.398 209.912,60.584 209.162 C 59.771 208.413,58.902 207.572,58.653 207.293 C 58.404 207.014,56.783 205.363,55.051 203.624 L 51.902 200.462 75.525 176.831 C 88.517 163.834,99.249 153.200,99.374 153.200 C 99.498 153.200,99.600 174.557,99.600 200.660 M125.467 225.467 C 125.133 225.800,125.110 274.101,125.443 274.967 C 125.762 275.799,174.292 275.948,175.120 275.120 C 175.948 274.292,175.799 225.762,174.967 225.443 C 174.101 225.110,125.800 225.133,125.467 225.467 M225.467 225.467 C 225.133 225.800,225.110 274.101,225.443 274.967 C 225.762 275.799,274.292 275.948,275.120 275.120 C 275.948 274.292,275.799 225.762,274.967 225.443 C 274.101 225.110,225.800 225.133,225.467 225.467 M174.800 250.200 L 174.800 274.800 150.200 274.800 L 125.600 274.800 125.600 250.200 L 125.600 225.600 150.200 225.600 L 174.800 225.600 174.800 250.200 M274.800 250.200 L 274.800 274.800 250.200 274.800 L 225.600 274.800 225.600 250.200 L 225.600 225.600 250.200 225.600 L 274.800 225.600 274.800 250.200 M152.006 300.388 C 151.470 300.726,200.081 350.000,200.951 350.000 C 201.088 350.000,201.200 349.795,201.200 349.544 C 201.200 348.991,248.747 301.406,249.600 301.105 C 250.122 300.921,250.117 300.859,249.567 300.630 C 249.117 300.442,247.904 301.422,245.367 304.021 C 242.402 307.059,201.137 348.296,200.615 348.742 C 200.455 348.879,190.004 338.793,187.457 336.042 C 185.547 333.980,183.834 332.404,183.500 332.402 C 183.335 332.401,183.200 332.222,183.200 332.003 C 183.200 331.661,182.470 330.894,180.299 328.954 C 180.025 328.708,179.039 327.673,178.110 326.654 C 177.180 325.634,176.270 324.800,176.087 324.800 C 175.903 324.800,175.239 324.117,174.611 323.282 C 173.983 322.446,172.874 321.321,172.146 320.782 C 171.418 320.242,170.817 319.651,170.811 319.469 C 170.795 318.976,168.528 316.800,168.031 316.800 C 167.794 316.800,167.599 316.665,167.598 316.500 C 167.595 316.064,164.062 312.400,163.645 312.400 C 163.451 312.400,163.016 311.978,162.678 311.462 C 162.340 310.947,161.398 309.912,160.584 309.162 C 159.771 308.413,158.902 307.571,158.653 307.292 C 158.404 307.012,156.898 305.482,155.306 303.892 C 153.714 302.301,152.409 300.866,152.406 300.702 C 152.403 300.538,173.955 300.357,200.300 300.300 L 248.200 300.197 200.400 300.104 C 171.122 300.048,152.370 300.158,152.006 300.388 M398.349 304.300 C 398.110 304.905,397.758 305.670,397.567 306.000 C 397.375 306.330,395.306 310.470,392.969 315.200 C 390.631 319.930,388.555 324.070,388.356 324.400 C 388.157 324.730,387.796 325.450,387.554 326.000 C 387.312 326.550,386.952 327.270,386.754 327.600 C 386.556 327.930,386.196 328.650,385.954 329.200 C 385.712 329.750,385.355 330.470,385.159 330.800 C 384.964 331.130,384.154 332.706,383.360 334.302 C 382.566 335.899,381.769 337.296,381.589 337.407 C 381.409 337.518,381.146 338.135,381.005 338.777 C 380.864 339.419,380.495 340.155,380.185 340.413 C 379.875 340.670,379.506 341.492,379.366 342.240 C 379.226 342.988,378.958 343.600,378.772 343.600 C 378.585 343.600,378.216 344.320,377.953 345.200 C 377.689 346.080,377.336 346.800,377.168 346.800 C 377.000 346.800,376.640 347.475,376.368 348.300 C 376.096 349.125,375.613 349.992,375.294 350.226 C 374.974 350.461,374.781 351.001,374.864 351.426 C 374.955 351.892,379.793 342.605,387.008 328.116 C 393.604 314.871,399.225 304.026,399.500 304.016 C 400.223 303.993,400.117 303.200,399.391 303.200 C 399.057 303.200,398.587 303.695,398.349 304.300 M374.079 353.113 C 373.306 354.223,366.800 367.237,366.800 367.675 C 366.800 367.894,366.440 368.531,366.000 369.091 C 365.560 369.650,365.200 370.370,365.200 370.691 C 365.200 371.011,364.840 371.731,364.400 372.291 C 363.960 372.850,363.600 373.649,363.600 374.066 C 363.600 374.484,363.350 374.921,363.045 375.038 C 362.740 375.155,362.381 375.794,362.248 376.458 C 362.116 377.122,361.645 378.125,361.204 378.686 C 360.762 379.248,360.400 380.029,360.400 380.421 C 360.400 380.813,360.254 381.193,360.076 381.267 C 359.701 381.421,352.800 395.094,352.800 395.682 C 352.800 395.898,352.440 396.531,352.000 397.091 C 351.560 397.650,351.221 398.579,351.246 399.154 C 351.272 399.729,351.368 399.923,351.459 399.584 C 351.551 399.246,356.840 388.550,363.212 375.817 C 373.732 354.797,375.543 351.012,374.079 353.113 M24.957 362.730 C 25.069 362.911,36.284 368.593,49.880 375.355 C 63.476 382.118,74.870 387.820,75.200 388.026 C 75.530 388.233,76.250 388.581,76.800 388.801 C 77.350 389.020,78.070 389.361,78.400 389.559 C 78.730 389.757,83.185 392.017,88.300 394.581 C 93.415 397.146,97.600 399.414,97.600 399.622 C 97.600 399.830,97.780 400.000,98.000 400.000 C 98.987 400.000,98.258 398.824,96.900 398.227 C 96.075 397.864,94.950 397.316,94.400 397.009 C 93.850 396.702,91.781 395.674,89.803 394.725 C 87.824 393.776,85.981 392.790,85.707 392.533 C 85.433 392.276,84.679 391.949,84.032 391.807 C 83.385 391.665,82.641 391.290,82.379 390.974 C 82.117 390.658,81.588 390.400,81.205 390.400 C 80.822 390.400,80.050 390.040,79.491 389.600 C 78.931 389.160,78.306 388.800,78.101 388.800 C 77.693 388.800,73.517 386.709,70.900 385.195 C 70.515 384.972,69.480 384.456,68.600 384.049 C 65.883 382.790,59.751 379.716,58.000 378.734 C 57.670 378.549,56.950 378.219,56.400 377.999 C 55.850 377.780,55.130 377.420,54.800 377.199 C 54.470 376.979,53.750 376.613,53.200 376.387 C 51.855 375.834,51.504 375.668,50.800 375.245 C 50.470 375.047,49.750 374.688,49.200 374.446 C 48.650 374.204,47.930 373.844,47.600 373.646 C 47.270 373.448,46.550 373.088,46.000 372.846 C 45.450 372.604,44.730 372.228,44.400 372.011 C 44.070 371.793,42.720 371.102,41.400 370.474 C 40.080 369.846,37.961 368.763,36.691 368.066 C 35.421 367.370,34.138 366.800,33.840 366.800 C 33.542 366.800,33.089 366.548,32.833 366.239 C 32.577 365.931,31.894 365.560,31.315 365.414 C 30.737 365.269,29.820 364.802,29.278 364.375 C 28.736 363.949,27.978 363.600,27.595 363.600 C 27.212 363.600,26.674 363.330,26.400 363.000 C 25.887 362.382,24.592 362.140,24.957 362.730 " stroke="none" fill="#e7e7d3" fill-rule="evenodd"></path></g></svg>