<?xml version="1.0" standalone="no"?>
<!DOCTYPE svg PUBLIC "-//W3C//DTD SVG 20010904//EN"
 "http://www.w3.org/TR/2001/REC-SVG-20010904/DTD/svg10.dtd">
<svg version="1.0" xmlns="http://www.w3.org/2000/svg"
 width="300.000000pt" height="300.000000pt" viewBox="0 0 300.000000 300.000000"
 preserveAspectRatio="xMidYMid meet">
<metadata>
Created by potrace 1.10, written by Peter Selinger 2001-2011
</metadata>
<g transform="translate(0.000000,300.000000) scale(0.100000,-0.100000)"
fill="#000000" stroke="none">
<path d="M394 2609 c-81 -81 -149 -154 -150 -162 -1 -8 66 -81 148 -163 87
-87 148 -141 146 -129 -2 11 -13 25 -26 31 -12 6 -20 13 -17 16 3 2 -47 57
-110 120 -63 64 -115 119 -115 122 0 3 34 39 75 80 43 44 69 77 62 80 -7 2 -4
5 6 5 22 1 127 109 112 115 -5 2 0 5 13 5 16 1 56 -33 137 -114 64 -64 119
-114 124 -111 5 3 12 -5 15 -19 4 -17 13 -25 29 -25 17 0 -11 33 -126 148 -82
82 -155 149 -162 149 -7 0 -80 -67 -161 -148z"/>
<path d="M870 2450 c0 -170 3 -310 7 -310 5 0 146 138 315 307 l308 308 308
-308 c169 -169 310 -307 315 -307 4 0 7 140 7 310 l0 310 -630 0 -630 0 0
-310z m568 281 c1 -1 -540 -541 -543 -541 0 0 4 536 5 540 0 4 526 5 538 1z
m657 1 c11 -2 20 -542 10 -542 -7 0 -535 533 -535 540 0 5 501 7 525 2z"/>
<path d="M2289 2614 c-79 -79 -140 -146 -136 -150 4 -4 7 -1 8 7 0 9 4 6 10
-6 9 -19 9 -18 5 3 -3 14 1 22 9 22 7 0 67 54 133 121 l119 120 37 -19 c22
-12 32 -22 24 -25 -7 -2 -1 -8 14 -12 16 -4 26 -11 23 -15 -7 -11 133 -150
148 -147 7 1 11 -4 10 -10 -2 -7 4 -13 12 -13 9 0 12 -6 9 -15 -4 -8 -1 -15 5
-15 18 0 13 -16 -14 -48 -13 -16 -22 -32 -18 -36 3 -3 -1 -6 -9 -6 -9 0 -62
-46 -117 -102 -94 -94 -113 -118 -93 -118 12 0 286 278 288 293 2 16 -288 310
-309 313 -8 1 -79 -63 -158 -142z"/>
<path d="M709 2305 c-74 -75 -136 -143 -137 -153 -2 -9 62 48 142 127 121 121
154 161 132 161 -1 0 -63 -61 -137 -135z"/>
<path d="M2275 2290 c134 -134 155 -152 155 -130 0 14 -42 50 -52 44 -4 -3 -8
2 -8 10 0 19 -99 118 -111 110 -5 -3 -9 1 -9 9 0 7 -11 24 -25 37 -13 12 -22
27 -18 33 3 6 1 7 -6 3 -6 -4 -14 0 -17 9 -6 13 -8 14 -15 3 -7 -10 -9 -10 -9
0 0 6 -6 12 -12 12 -7 0 50 -63 127 -140z"/>
<path d="M240 1500 l0 -630 310 0 c171 0 310 3 310 7 0 5 -138 146 -307 315
l-308 308 308 308 c169 169 307 310 307 315 0 4 -139 7 -310 7 l-310 0 0 -630z
m570 604 c0 -1 -543 -544 -544 -544 -1 0 2 544 3 547 1 2 541 -1 541 -3z m0
-1207 c0 -1 -122 -3 -270 -2 l-270 0 -1 265 c-1 146 -1 268 0 271 1 6 541
-527 541 -534z"/>
<path d="M870 1500 l0 -630 630 0 630 0 0 630 0 630 -630 0 -630 0 0 -630z
m1230 600 c6 0 2 -1191 -4 -1197 -5 -5 -1188 -5 -1193 0 -5 5 -5 1186 1 1195
3 5 907 7 1196 2z"/>
<path d="M1212 1910 c-87 -5 -111 -13 -112 -40 0 -19 152 -311 165 -316 25
-10 42 12 97 125 29 58 55 108 58 111 7 7 30 74 30 88 0 33 -62 41 -238 32z
m144 -188 l-79 -158 -76 151 c-41 82 -77 153 -79 158 -2 4 68 7 155 7 l159 0
-80 -158z"/>
<path d="M1707 1824 c-81 -41 -150 -81 -153 -89 -11 -27 17 -46 170 -121 194
-96 187 -100 185 113 -1 138 -2 154 -19 163 -10 6 -22 10 -27 9 -4 0 -75 -34
-156 -75z m173 -102 l0 -158 -158 79 -157 80 150 77 c82 42 153 78 158 78 4 1
7 -69 7 -156z"/>
<path d="M1106 1441 c-13 -14 -16 -44 -16 -162 1 -124 3 -147 19 -165 l18 -22
118 59 c65 33 124 64 130 69 7 6 14 8 16 5 3 -2 18 6 34 19 27 22 28 26 16 47
-8 15 -48 40 -109 69 -53 24 -108 52 -122 61 -14 9 -39 21 -57 27 -26 9 -34 7
-47 -7z m179 -240 c-82 -41 -153 -77 -157 -79 -5 -2 -8 68 -8 155 l0 159 158
-80 158 -79 -151 -76z"/>
<path d="M1709 1446 c-9 -6 -50 -80 -93 -165 -98 -199 -103 -191 107 -191 136
0 151 2 167 20 16 18 14 25 -48 147 -35 70 -68 132 -73 138 -5 5 -9 16 -9 25
0 23 -32 40 -51 26z m169 -318 c2 -5 -68 -8 -155 -8 l-159 0 80 158 79 158 76
-151 c41 -82 77 -153 79 -157z"/>
<path d="M2140 2123 c0 -5 138 -146 307 -315 l308 -308 -308 -308 c-169 -169
-307 -310 -307 -315 0 -4 140 -7 310 -7 l310 0 0 630 0 630 -310 0 c-170 0
-310 -3 -310 -7z m595 -283 c0 -146 -1 -268 -2 -271 -2 -6 -543 528 -543 536
0 1 123 2 272 1 l273 -2 0 -264z m-1 -672 c-1 -145 -3 -266 -3 -270 -1 -7
-541 -9 -541 -3 0 6 534 535 540 535 3 0 5 -118 4 -262z"/>
<path d="M570 845 c0 -20 258 -275 279 -275 9 0 -48 64 -129 145 -80 80 -146
145 -147 145 -2 0 -3 -7 -3 -15z"/>
<path d="M870 550 l0 -310 630 0 630 0 0 310 c0 171 -3 310 -7 310 -5 0 -146
-138 -315 -307 l-308 -308 -308 308 c-169 169 -310 307 -315 307 -4 0 -7 -139
-7 -310z m299 -10 c148 -149 266 -271 262 -273 -3 -2 -125 -3 -270 -2 l-265 0
-2 273 c-1 149 0 272 2 272 2 0 125 -122 273 -270z m938 0 c1 -149 -1 -270 -5
-270 -112 -5 -532 -3 -532 2 0 5 529 538 534 538 1 0 2 -121 3 -270z"/>
<path d="M2287 722 c-75 -75 -137 -142 -137 -147 0 -6 5 -3 10 5 5 8 10 10 10
4 0 -7 36 24 81 67 44 44 78 82 76 86 -3 5 1 14 9 21 8 7 14 9 14 3 0 -5 17 7
38 28 20 20 33 38 28 40 -4 2 -2 7 5 12 7 4 11 10 8 13 -3 3 -67 -56 -142
-132z"/>
<path d="M2460 843 c0 -16 8 -25 25 -29 14 -3 23 -9 20 -14 -7 -11 182 -200
201 -200 10 0 14 -3 11 -7 -4 -3 -2 -12 4 -19 6 -8 8 -21 4 -31 -5 -10 -7 -22
-6 -26 1 -5 -4 -7 -11 -5 -15 5 -59 -42 -52 -54 3 -4 -1 -8 -8 -8 -17 0 -98
-81 -98 -98 0 -7 -4 -11 -10 -7 -12 7 -50 -30 -50 -50 0 -8 -3 -14 -7 -13 -5
0 -16 -2 -27 -7 -15 -7 -39 13 -133 109 -63 64 -118 114 -123 111 -4 -3 -11 7
-15 22 -4 19 -9 23 -14 14 -7 -11 -10 -11 -14 0 -3 8 -6 9 -6 4 -1 -14 274
-288 292 -291 16 -2 310 288 313 309 1 8 -65 81 -147 163 -116 116 -149 144
-149 127z"/>
<path d="M380 705 c-80 -80 -144 -149 -142 -153 5 -15 307 -312 317 -312 19 0
308 297 296 304 -6 4 -11 0 -12 -11 0 -10 -3 -13 -5 -7 -5 13 -204 -184 -204
-202 0 -8 -6 -11 -15 -8 -10 4 -15 0 -15 -15 0 -14 -5 -19 -15 -15 -8 4 -15 1
-15 -5 0 -6 -12 -11 -27 -11 -23 0 -25 2 -13 11 12 9 12 10 -4 5 -13 -5 -17
-2 -13 8 4 11 1 13 -10 9 -10 -4 -14 -2 -10 4 9 14 -96 120 -113 115 -7 -3
-10 0 -7 5 8 12 -27 46 -36 36 -4 -3 -7 0 -7 8 0 9 -13 28 -30 44 -16 16 -30
33 -30 38 0 5 52 60 115 124 63 63 113 119 110 123 -3 4 6 11 19 14 13 3 26
13 30 21 15 40 -31 3 -164 -130z"/>
</g>
</svg>
