<?xml version="1.0" standalone="no"?>
<!DOCTYPE svg PUBLIC "-//W3C//DTD SVG 20010904//EN"
 "http://www.w3.org/TR/2001/REC-SVG-20010904/DTD/svg10.dtd">
<svg version="1.0" xmlns="http://www.w3.org/2000/svg"
 width="300.000000pt" height="300.000000pt" viewBox="0 0 300.000000 300.000000"
 preserveAspectRatio="xMidYMid meet">
<metadata>
Created by potrace 1.10, written by Peter Selinger 2001-2011
</metadata>
<g transform="translate(0.000000,300.000000) scale(0.100000,-0.100000)"
fill="#000000" stroke="none">
<path d="M240 2447 l0 -317 155 0 c85 0 155 4 155 9 0 12 -68 19 -175 19 -49
0 -94 1 -100 1 -6 1 -11 101 -13 273 -3 244 -1 270 13 258 22 -18 535 -532
535 -535 0 -2 -39 -2 -87 1 -95 5 -163 -2 -163 -17 0 -5 68 -9 155 -9 l155 0
0 -155 c0 -97 4 -155 10 -155 6 0 11 48 11 123 1 67 2 131 3 142 1 19 9 20
141 22 91 1 141 5 143 12 3 8 -43 11 -150 11 l-153 0 -317 317 -318 318 0
-318z"/>
<path d="M1028 2603 l-157 -158 171 -172 171 -173 246 0 c252 0 351 6 351 21
0 5 -141 9 -312 9 l-313 0 158 157 157 158 158 -158 157 -157 158 158 157 157
-158 158 -157 157 -158 -157 -157 -158 -158 158 -157 157 -157 -157z m319 -42
c62 -63 113 -115 113 -116 0 -1 -61 -63 -137 -138 -133 -134 -137 -137 -156
-120 -11 10 -73 72 -138 137 -115 116 -118 120 -101 140 9 10 70 73 135 139
l119 119 26 -24 c14 -12 76 -74 139 -137z m602 27 c71 -70 132 -132 135 -137
5 -7 -257 -276 -269 -276 -3 0 -66 60 -140 134 -132 131 -135 135 -117 155 32
37 255 256 258 254 2 -2 61 -60 133 -130z"/>
<path d="M2130 2605 c0 -97 4 -155 10 -155 6 0 10 33 11 78 0 42 1 105 2 140
0 34 3 62 6 62 93 5 530 3 529 -2 -3 -7 -528 -538 -533 -538 -1 0 -2 17 -2 38
-1 157 -4 212 -13 212 -6 0 -10 -58 -10 -155 l0 -155 -155 0 c-97 0 -155 -4
-155 -10 0 -6 51 -10 133 -10 72 0 137 -4 143 -8 7 -4 10 -49 9 -129 -2 -90 1
-127 11 -140 11 -15 13 5 14 137 l0 155 317 317 318 318 -318 0 -317 0 0 -155z"/>
<path d="M397 1972 l-157 -157 157 -158 158 -157 -158 -158 -157 -157 158
-158 157 -157 158 157 157 158 -157 157 -158 158 158 157 157 158 0 -313 c0
-171 4 -312 8 -312 14 0 23 295 15 463 l-8 152 -165 162 -165 163 -158 -158z
m302 -24 c72 -73 131 -133 131 -133 0 -2 -166 -169 -227 -228 l-49 -47 -120
118 c-65 66 -127 128 -137 140 -18 20 -17 22 110 150 70 71 135 130 145 131 9
1 75 -58 147 -131z m-3 -627 c69 -71 127 -131 128 -134 1 -6 -161 -176 -225
-235 l-47 -43 -136 137 c-75 75 -136 137 -136 139 0 11 273 274 280 270 5 -3
66 -63 136 -134z"/>
<path d="M2277 1962 l-168 -167 -4 -287 c-2 -230 0 -291 11 -305 11 -15 13 29
14 297 l0 315 157 -158 158 -157 -158 -158 -157 -157 158 -158 157 -157 158
157 157 158 -157 157 -158 158 158 158 157 157 -157 157 -158 158 -168 -168z
m282 17 c31 -31 80 -81 109 -111 l53 -54 -135 -133 c-73 -73 -136 -134 -139
-135 -6 -1 -259 244 -271 262 -4 6 49 67 130 147 l137 136 30 -28 c16 -15 55
-53 86 -84z m48 -679 l113 -115 -137 -137 -138 -138 -105 104 c-58 57 -115
112 -128 122 -52 42 -52 44 94 189 l137 136 26 -23 c14 -13 76 -75 138 -138z"/>
<path d="M1118 1891 c-20 -17 -20 -18 62 -180 74 -147 84 -161 103 -155 12 3
22 7 22 8 0 0 28 57 62 126 79 159 86 179 73 195 -7 8 -45 13 -113 15 -56 1
-121 3 -145 5 -28 2 -50 -3 -64 -14z m312 -21 c-8 -5 -10 -10 -5 -10 6 0 6 -3
-1 -8 -6 -4 -42 -71 -81 -150 -59 -119 -72 -139 -78 -120 -4 13 -8 25 -9 28
-8 24 -123 246 -128 248 -5 2 -8 8 -8 13 0 5 71 9 163 9 108 0 157 -4 147 -10z"/>
<path d="M1860 1892 c-8 -2 -77 -35 -152 -72 -75 -38 -140 -65 -145 -62 -4 4
-5 3 -1 -2 4 -5 3 -15 -2 -21 -6 -7 -8 -19 -5 -26 6 -13 255 -140 301 -153 39
-12 46 14 48 169 1 120 -2 147 -14 158 -9 7 -22 11 -30 9z m20 -173 c0 -149
-1 -160 -16 -148 -9 8 -83 47 -163 86 -80 40 -139 73 -131 73 16 0 269 125
285 141 5 5 13 9 17 9 4 0 8 -73 8 -161z"/>
<path d="M1110 1433 c-11 -13 -15 -23 -9 -23 7 0 8 -5 2 -12 -4 -7 -8 -69 -7
-138 2 -149 2 -140 14 -140 6 0 10 61 10 163 0 89 4 157 8 151 11 -16 294
-154 303 -148 5 3 9 0 9 -5 0 -6 -5 -11 -12 -11 -6 0 -72 -30 -147 -67 -125
-63 -172 -94 -152 -101 12 -4 283 136 305 158 24 23 13 40 -47 70 -23 12 -49
25 -57 29 -8 5 -57 28 -107 53 l-92 44 -21 -23z"/>
<path d="M1691 1421 c-12 -16 -21 -32 -21 -36 0 -3 -28 -62 -62 -131 -80 -161
-84 -156 118 -158 110 -1 148 2 151 12 4 9 -31 12 -151 12 -86 0 -156 1 -156
3 0 1 36 74 80 162 44 88 80 154 80 146 0 -21 133 -284 150 -298 8 -6 16 -10
18 -8 5 5 -138 288 -155 308 -22 23 -28 22 -52 -12z"/>
<path d="M870 1028 l0 -153 -317 -317 -318 -318 318 0 317 0 0 155 c0 97 -4
155 -10 155 -6 0 -10 -40 -11 -97 -1 -54 -2 -118 -3 -143 l-1 -45 -250 -2
c-137 -1 -260 0 -271 3 -17 3 27 52 248 274 148 148 270 270 271 270 2 0 3
-52 2 -116 0 -81 4 -119 13 -126 9 -8 12 22 12 146 l0 156 157 0 158 0 -158
-157 -157 -158 157 -157 158 -158 157 157 158 158 158 -158 157 -157 158 158
157 157 -157 158 -158 157 -157 -157 -158 -158 -157 158 -158 157 313 0 c253
0 312 3 312 13 0 20 -589 18 -613 -1 -13 -11 -17 -11 -24 0 -6 10 -43 13 -143
13 l-135 0 -1 85 c-3 184 -4 200 -14 200 -6 0 -10 -57 -10 -152z m382 -262
c29 -29 88 -89 131 -133 l77 -79 -136 -137 c-75 -75 -137 -137 -138 -137 -7 0
-266 262 -268 270 -4 16 243 268 264 269 9 1 40 -23 70 -53z m707 -78 l130
-133 -107 -110 c-59 -60 -121 -122 -138 -138 l-32 -27 -131 132 c-73 73 -133
137 -133 142 -3 16 246 265 264 265 10 1 75 -58 147 -131z"/>
<path d="M2108 1038 l-3 -143 -142 0 c-110 1 -143 -2 -143 -12 0 -10 35 -13
152 -13 l153 0 317 -317 318 -318 0 318 0 317 -155 0 c-97 0 -155 -4 -155 -10
0 -6 32 -10 73 -11 39 -1 104 -2 142 -3 l70 -1 -3 -260 c-1 -143 -2 -265 -2
-270 0 -6 -119 108 -265 254 -145 145 -262 268 -259 273 4 5 47 9 98 8 124 -2
136 -2 136 10 0 6 -58 10 -155 10 l-155 0 0 155 c0 199 -18 210 -22 13z"/>
</g>
</svg>
