<?xml version="1.0" encoding="UTF-8" standalone="no"?>
<!DOCTYPE svg PUBLIC "-//W3C//DTD SVG 20010904//EN"
              "http://www.w3.org/TR/2001/REC-SVG-20010904/DTD/svg10.dtd">

<svg xmlns="http://www.w3.org/2000/svg"
     width="15.3333in" height="4.44444in"
     viewBox="0 0 1380 400">
  <path id="path0"
        fill="none" stroke="black" stroke-width="1"
        d="M 30.00,49.40
           C 30.00,88.66 30.10,98.80 30.50,98.78
             30.77,98.77 79.23,2.18 79.50,1.94
             79.78,1.70 80.00,1.16 80.00,0.75
             80.00,0.02 79.19,0.00 55.00,0.00
             55.00,0.00 30.00,0.00 30.00,0.00
             30.00,0.00 30.00,49.40 30.00,49.40M 81.27,0.41
           C 81.63,1.50 129.39,48.74 129.68,48.29
             129.85,48.02 129.99,37.05 129.99,23.90
             129.99,23.90 130.00,0.00 130.00,0.00
             130.00,0.00 105.57,0.00 105.57,0.00
             89.23,0.00 81.18,0.13 81.27,0.41M 332.00,0.41
           C 332.00,0.63 334.12,1.87 336.70,3.15
             343.72,6.65 426.30,48.13 427.40,48.78
             428.50,49.42 429.53,49.96 429.70,49.97
             429.87,49.99 430.00,38.75 430.00,25.00
             430.00,25.00 430.00,0.00 430.00,0.00
             430.00,0.00 381.00,0.00 381.00,0.00
             348.04,0.00 332.00,0.13 332.00,0.41M 330.24,3.03
           C 330.11,3.38 330.00,25.34 330.00,51.83
             330.00,51.83 330.00,100.00 330.00,100.00
             330.00,100.00 306.03,100.00 306.03,100.00
             292.85,100.00 281.78,99.89 281.43,99.76
             280.87,99.54 280.80,96.98 280.80,74.97
             280.80,74.97 280.80,50.41 280.80,50.41
             280.80,50.41 279.90,50.20 279.90,50.20
             279.40,50.08 256.77,50.03 229.60,50.09
             229.60,50.09 180.20,50.20 180.20,50.20
             180.20,50.20 180.00,75.00 180.00,75.00
             180.00,75.00 179.80,99.80 179.80,99.80
             179.80,99.80 154.90,99.90 154.90,99.90
             154.90,99.90 130.00,100.01 130.00,100.01
             130.00,100.01 130.00,76.03 130.00,76.03
             130.00,60.00 129.86,51.96 129.59,51.79
             129.28,51.60 113.23,59.33 108.40,62.00
             108.07,62.18 91.24,70.58 71.00,80.66
             50.76,90.73 34.12,99.04 34.01,99.11
             32.94,99.86 40.21,99.99 82.50,99.99
             82.50,99.99 130.01,100.00 130.01,100.00
             130.01,100.00 129.90,124.90 129.90,124.90
             129.90,124.90 129.80,149.80 129.80,149.80
             129.80,149.80 105.00,150.00 105.00,150.00
             105.00,150.00 80.20,150.20 80.20,150.20
             80.20,150.20 80.09,199.60 80.09,199.60
             80.03,226.77 80.08,249.41 80.20,249.90
             80.20,249.90 80.41,250.80 80.41,250.80
             80.41,250.80 104.97,250.80 104.97,250.80
             126.98,250.80 129.54,250.87 129.76,251.43
             129.89,251.78 130.00,262.85 130.00,276.03
             130.00,276.03 130.00,300.00 130.00,300.00
             130.00,300.00 105.99,300.00 105.99,300.00
             84.54,300.00 81.95,300.07 81.73,300.63
             81.55,301.11 129.41,396.31 129.64,395.94
             129.83,395.64 129.99,373.93 129.99,347.70
             129.99,347.70 130.00,300.00 130.00,300.00
             130.00,300.00 154.78,300.00 154.78,300.00
             170.05,300.00 179.64,300.15 179.79,300.38
             179.92,300.59 180.02,311.73 180.01,325.13
             180.00,338.54 180.10,349.80 180.24,350.15
             180.65,351.22 279.17,351.14 280.14,350.07
             280.74,349.40 280.80,347.09 280.80,325.15
             280.80,306.87 280.92,300.84 281.28,300.48
             281.64,300.12 287.65,300.00 305.88,300.00
             305.88,300.00 330.00,300.00 330.00,300.00
             330.00,300.00 330.00,324.81 330.00,324.81
             330.00,351.41 329.98,351.17 331.91,349.51
             332.29,349.19 335.21,347.61 338.40,346.01
             351.26,339.54 378.24,325.90 378.80,325.58
             379.13,325.39 382.10,323.91 385.40,322.28
             414.11,308.11 428.02,300.84 427.25,300.43
             426.70,300.13 411.71,300.00 378.23,300.00
             378.23,300.00 330.00,300.00 330.00,300.00
             330.00,300.00 330.00,275.88 330.00,275.88
             330.00,257.65 330.12,251.64 330.48,251.28
             330.84,250.92 336.88,250.80 355.22,250.80
             378.21,250.80 379.51,250.76 380.14,250.07
             381.15,248.96 381.16,150.62 380.15,150.24
             379.80,150.10 368.54,150.00 355.13,150.01
             341.73,150.02 330.59,149.92 330.38,149.79
             330.15,149.64 330.00,140.05 330.00,124.78
             330.00,124.78 330.00,100.00 330.00,100.00
             330.00,100.00 354.17,100.00 354.17,100.00
             367.46,100.00 378.61,99.89 378.94,99.77
             379.49,99.55 334.30,9.07 333.15,6.70
             331.03,2.34 330.68,1.90 330.24,3.03M 254.99,75.43
           C 268.09,88.54 278.71,99.43 278.58,99.63
             278.29,100.10 182.53,100.13 182.23,99.65
             181.91,99.13 229.61,51.60 230.46,51.60
             230.88,51.60 241.10,61.53 254.99,75.43M 405.70,75.68
           C 389.76,91.61 382.18,99.47 382.51,99.67
             382.78,99.85 393.57,99.99 406.50,99.99
             406.50,99.99 430.00,100.00 430.00,100.00
             430.00,100.00 430.00,76.00 430.00,76.00
             430.00,62.80 429.86,52.00 429.69,52.00
             429.52,52.00 418.72,62.66 405.70,75.68M 204.97,125.19
           C 204.97,125.19 206.00,125.58 206.00,125.58
             206.00,125.58 206.00,149.99 206.00,149.99
             206.00,173.87 205.98,174.42 205.20,175.20
             204.42,175.98 203.87,176.00 179.99,176.00
             179.99,176.00 155.58,176.00 155.58,176.00
             155.58,176.00 155.19,174.97 155.19,174.97
             154.58,173.38 154.67,125.89 155.28,125.28
             155.89,124.67 203.38,124.58 204.97,125.19M 304.97,125.19
           C 304.97,125.19 306.00,125.58 306.00,125.58
             306.00,125.58 306.00,149.99 306.00,149.99
             306.00,173.87 305.98,174.42 305.20,175.20
             304.42,175.98 303.87,176.00 279.99,176.00
             279.99,176.00 255.58,176.00 255.58,176.00
             255.58,176.00 255.19,174.97 255.19,174.97
             254.58,173.38 254.67,125.89 255.28,125.28
             255.89,124.67 303.38,124.58 304.97,125.19M 355.36,175.80
           C 368.66,189.11 379.73,200.00 379.97,200.00
             380.21,200.00 380.40,200.27 380.40,200.60
             380.40,200.93 380.18,201.20 379.90,201.20
             379.25,201.20 331.20,249.24 331.20,249.90
             331.20,250.74 330.51,250.45 330.25,249.50
             329.92,248.26 329.93,152.20 330.27,151.87
             330.41,151.72 330.68,151.60 330.86,151.60
             331.04,151.60 342.06,162.49 355.36,175.80M 129.90,200.21
           C 129.96,227.19 129.85,248.31 129.65,248.51
             129.09,249.07 81.53,201.31 81.68,200.33
             81.81,199.43 128.77,152.07 129.40,152.19
             129.66,152.24 129.83,168.64 129.90,200.21M 204.97,225.19
           C 204.97,225.19 206.00,225.58 206.00,225.58
             206.00,225.58 206.00,249.99 206.00,249.99
             206.00,273.87 205.98,274.42 205.20,275.20
             204.42,275.98 203.87,276.00 179.99,276.00
             179.99,276.00 155.58,276.00 155.58,276.00
             155.58,276.00 155.19,274.97 155.19,274.97
             154.58,273.38 154.67,225.89 155.28,225.28
             155.89,224.67 203.38,224.58 204.97,225.19M 304.97,225.19
           C 304.97,225.19 306.00,225.58 306.00,225.58
             306.00,225.58 306.00,249.99 306.00,249.99
             306.00,273.87 305.98,274.42 305.20,275.20
             304.42,275.98 303.87,276.00 279.99,276.00
             279.99,276.00 255.58,276.00 255.58,276.00
             255.58,276.00 255.19,274.97 255.19,274.97
             254.58,273.38 254.67,225.89 255.28,225.28
             255.89,224.67 303.38,224.58 304.97,225.19M 30.00,324.99
           C 30.00,346.30 30.08,350.00 30.57,350.00
             30.88,350.00 31.19,349.82 31.27,349.60
             31.38,349.25 58.07,322.41 74.24,306.38
             77.41,303.23 79.89,300.56 79.77,300.43
             79.64,300.31 68.39,300.15 54.77,300.09
             54.77,300.09 30.00,299.98 30.00,299.98
             30.00,299.98 30.00,324.99 30.00,324.99M 279.50,300.25
           C 280.45,300.51 280.75,301.20 279.90,301.20
             279.25,301.20 231.20,349.25 231.20,349.90
             231.20,350.17 230.93,350.40 230.60,350.40
             230.27,350.40 230.00,350.21 230.00,349.97
             230.00,349.73 219.10,338.65 205.77,325.33
             190.18,309.75 181.62,300.92 181.76,300.56
             181.98,299.98 277.35,299.68 279.50,300.25M 410.84,341.10
           C 400.67,361.50 392.20,378.47 392.01,378.80
             390.89,380.83 381.60,399.51 381.60,399.73
             381.60,399.88 392.49,400.00 405.80,400.00
             405.80,400.00 430.00,400.00 430.00,400.00
             430.00,400.00 430.00,352.00 430.00,352.00
             430.00,325.60 429.85,304.00 429.67,304.00
             429.48,304.00 421.01,320.69 410.84,341.10M 30.00,375.60
           C 30.00,375.60 30.00,400.00 30.00,400.00
             30.00,400.00 78.60,400.00 78.60,400.00
             107.77,400.00 127.20,399.85 127.20,399.63
             127.20,399.43 122.30,396.81 116.30,393.81
             110.30,390.81 105.13,388.20 104.80,388.02
             104.04,387.59 80.73,375.94 79.56,375.40
             79.09,375.18 67.98,369.65 54.88,363.10
             41.78,356.56 30.82,351.20 30.53,351.20
             30.09,351.20 30.00,355.57 30.00,375.60M 330.27,351.86
           C 330.12,352.01 330.00,362.90 330.00,376.07
             330.00,376.07 330.00,400.00 330.00,400.00
             330.00,400.00 354.40,400.00 354.40,400.00
             367.82,400.00 378.80,399.86 378.80,399.69
             378.80,399.34 331.40,351.87 330.88,351.69
             330.70,351.63 330.43,351.71 330.27,351.86" />
</svg>
