<?xml version="1.0" encoding="UTF-8" standalone="no"?>
<!DOCTYPE svg PUBLIC "-//W3C//DTD SVG 20010904//EN"
              "http://www.w3.org/TR/2001/REC-SVG-20010904/DTD/svg10.dtd">

<svg xmlns="http://www.w3.org/2000/svg"
     width="4.44444in" height="4.44444in"
     viewBox="0 0 400 400">
  <path id="Selection"
        fill="none" stroke="black" stroke-width="1"
        d="M 0.00,0.00
           C 0.00,0.00 0.00,99.00 0.00,99.00
             5.47,93.54 13.38,75.73 17.25,68.00
             17.25,68.00 39.25,24.00 39.25,24.00
             42.53,17.44 48.73,6.78 50.00,0.00
             50.00,0.00 0.00,0.00 0.00,0.00 Z
           M 51.00,0.00
           C 54.68,6.85 62.41,13.41 68.00,19.00
             74.44,25.44 93.57,44.40 100.00,49.00
             100.00,49.00 100.00,0.00 100.00,0.00
             100.00,0.00 51.00,0.00 51.00,0.00 Z
           M 302.00,0.00
           C 306.83,5.48 323.69,12.59 331.00,16.25
             331.00,16.25 375.00,38.25 375.00,38.25
             381.37,41.43 393.83,48.24 400.00,50.00
             400.00,50.00 400.00,0.00 400.00,0.00
             400.00,0.00 302.00,0.00 302.00,0.00 Z
           M 300.00,2.00
           C 300.00,2.00 300.00,100.00 300.00,100.00
             300.00,100.00 277.00,100.00 277.00,100.00
             277.00,100.00 260.00,99.00 260.00,99.00
             257.25,98.98 253.91,99.29 252.17,96.69
             250.51,94.18 251.00,86.23 251.00,83.00
             251.00,83.00 251.00,50.00 251.00,50.00
             251.00,50.00 150.00,50.00 150.00,50.00
             150.00,50.00 149.00,99.00 149.00,99.00
             149.00,99.00 118.00,99.00 118.00,99.00
             118.00,99.00 100.00,100.00 100.00,100.00
             100.00,100.00 100.00,51.00 100.00,51.00
             100.00,51.00 31.00,84.75 31.00,84.75
             31.00,84.75 13.00,93.75 13.00,93.75
             13.00,93.75 4.00,100.00 4.00,100.00
             4.00,100.00 100.00,100.00 100.00,100.00
             100.00,100.00 99.00,149.04 99.00,149.04
             99.00,149.04 82.00,149.04 82.00,149.04
             82.00,149.04 70.00,150.00 70.00,150.00
             70.00,150.00 50.00,150.00 50.00,150.00
             50.00,150.00 50.00,251.00 50.00,251.00
             50.00,251.00 90.00,251.00 90.00,251.00
             92.73,251.02 96.25,250.73 97.98,253.31
             99.38,255.42 98.99,261.34 99.00,264.00
             99.00,264.00 100.00,281.00 100.00,281.00
             100.00,281.00 100.00,300.00 100.00,300.00
             100.00,300.00 51.00,300.00 51.00,300.00
             52.80,306.31 59.54,318.62 62.75,325.00
             62.75,325.00 83.75,367.00 83.75,367.00
             87.41,374.31 94.52,391.17 100.00,396.00
             100.00,396.00 100.00,300.00 100.00,300.00
             100.00,300.00 122.00,300.00 122.00,300.00
             122.00,300.00 134.00,300.96 134.00,300.96
             134.00,300.96 149.05,300.96 149.05,300.96
             149.05,300.96 149.05,314.91 149.05,314.91
             149.05,314.91 150.00,328.00 150.00,328.00
             150.00,328.00 150.00,351.00 150.00,351.00
             150.00,351.00 242.00,351.00 242.00,351.00
             244.30,351.00 248.41,351.38 249.98,349.40
             251.40,347.60 251.00,341.41 251.00,339.00
             251.00,339.00 251.00,312.00 251.00,312.00
             251.01,308.91 250.56,304.00 253.43,302.02
             255.52,300.59 261.35,301.03 264.00,301.00
             264.00,301.00 278.00,300.00 278.00,300.00
             278.00,300.00 300.00,300.00 300.00,300.00
             300.00,300.00 300.00,400.00 300.00,400.00
             300.00,400.00 349.00,400.00 349.00,400.00
             343.29,391.01 327.22,376.22 319.00,368.00
             313.94,362.94 307.29,354.97 301.00,352.00
             301.00,352.00 301.00,350.00 301.00,350.00
             301.00,350.00 337.00,332.25 337.00,332.25
             337.00,332.25 398.00,301.00 398.00,301.00
             393.13,299.07 374.38,300.00 368.00,300.00
             368.00,300.00 300.00,300.00 300.00,300.00
             300.00,300.00 300.00,280.00 300.00,280.00
             300.00,280.00 301.00,260.00 301.00,260.00
             301.02,257.27 300.73,253.75 303.31,252.02
             305.58,250.51 313.97,251.00 317.00,251.00
             317.00,251.00 351.00,251.00 351.00,251.00
             351.00,251.00 351.00,150.00 351.00,150.00
             351.00,150.00 323.00,150.00 323.00,150.00
             323.00,150.00 301.00,149.00 301.00,149.00
             301.00,149.00 300.00,100.00 300.00,100.00
             300.00,100.00 349.00,100.00 349.00,100.00
             348.22,92.62 341.71,81.93 338.25,75.00
             338.25,75.00 314.25,27.00 314.25,27.00
             311.36,21.23 304.73,5.04 300.00,2.00 Z
           M 201.00,52.00
           C 201.00,52.00 230.00,81.00 230.00,81.00
             230.00,81.00 247.00,99.00 247.00,99.00
             247.00,99.00 218.00,99.00 218.00,99.00
             218.00,99.00 204.00,100.00 204.00,100.00
             204.00,100.00 180.00,99.00 180.00,99.00
             180.00,99.00 154.00,99.00 154.00,99.00
             154.00,99.00 177.00,75.00 177.00,75.00
             177.00,75.00 201.00,52.00 201.00,52.00 Z
           M 352.00,100.00
           C 352.00,100.00 400.00,100.00 400.00,100.00
             400.00,100.00 400.00,52.00 400.00,52.00
             393.71,54.97 387.06,62.94 382.00,68.00
             374.36,75.64 356.83,91.73 352.00,100.00 Z
           M 176.00,126.00
           C 176.00,126.00 176.00,146.00 176.00,146.00
             176.00,146.00 175.00,161.00 175.00,161.00
             175.00,161.00 175.00,175.04 175.00,175.04
             175.00,175.04 160.00,175.04 160.00,175.04
             160.00,175.04 148.00,176.00 148.00,176.00
             148.00,176.00 126.00,176.00 126.00,176.00
             124.28,166.40 124.88,145.61 125.00,135.00
             125.04,132.16 124.88,128.14 127.51,126.31
             129.71,124.78 134.35,125.00 137.00,125.00
             147.86,124.98 166.00,124.21 176.00,126.00 Z
           M 276.00,126.00
           C 276.00,126.00 276.00,146.00 276.00,146.00
             276.00,146.00 275.00,161.00 275.00,161.00
             275.00,161.00 275.00,175.04 275.00,175.04
             275.00,175.04 260.00,175.04 260.00,175.04
             260.00,175.04 248.00,176.00 248.00,176.00
             248.00,176.00 226.00,176.00 226.00,176.00
             224.28,166.40 224.88,145.61 225.00,135.00
             225.04,132.16 224.88,128.14 227.51,126.31
             229.71,124.78 234.35,125.00 237.00,125.00
             247.86,124.98 266.00,124.21 276.00,126.00 Z
           M 302.00,153.00
           C 302.00,153.00 350.00,200.00 350.00,200.00
             350.00,200.00 329.00,221.00 329.00,221.00
             329.00,221.00 301.00,249.00 301.00,249.00
             301.00,249.00 301.00,218.00 301.00,218.00
             301.00,218.00 300.02,201.00 300.02,201.00
             300.02,201.00 301.00,186.00 301.00,186.00
             301.07,179.25 300.05,157.92 302.00,153.00 Z
           M 99.00,154.00
           C 99.00,154.00 99.00,247.00 99.00,247.00
             92.41,242.28 73.96,222.96 67.00,216.00
             64.46,213.46 55.10,204.69 54.17,202.00
             52.67,197.67 60.22,191.78 63.00,189.00
             63.00,189.00 99.00,154.00 99.00,154.00 Z
           M 176.00,226.00
           C 176.00,226.00 176.00,246.00 176.00,246.00
             176.00,246.00 175.00,261.00 175.00,261.00
             175.00,261.00 175.00,275.04 175.00,275.04
             175.00,275.04 160.00,275.04 160.00,275.04
             160.00,275.04 148.00,276.00 148.00,276.00
             148.00,276.00 126.00,276.00 126.00,276.00
             124.28,266.40 124.88,245.61 125.00,235.00
             125.04,232.16 124.88,228.14 127.51,226.31
             129.71,224.78 134.35,225.00 137.00,225.00
             147.86,224.98 166.00,224.21 176.00,226.00 Z
           M 276.00,226.00
           C 276.00,226.00 276.00,246.00 276.00,246.00
             276.00,246.00 275.00,261.00 275.00,261.00
             275.00,261.00 275.00,275.04 275.00,275.04
             275.00,275.04 260.00,275.04 260.00,275.04
             260.00,275.04 248.00,276.00 248.00,276.00
             248.00,276.00 226.00,276.00 226.00,276.00
             224.28,266.40 224.88,245.61 225.00,235.00
             225.04,232.16 224.88,228.14 227.51,226.31
             229.71,224.78 234.35,225.00 237.00,225.00
             247.86,224.98 266.00,224.21 276.00,226.00 Z
           M 249.00,301.00
           C 249.00,301.00 234.00,316.00 234.00,316.00
             234.00,316.00 201.00,350.00 201.00,350.00
             201.00,350.00 180.00,329.00 180.00,329.00
             180.00,329.00 153.00,301.00 153.00,301.00
             153.00,301.00 182.00,301.00 182.00,301.00
             182.00,301.00 196.00,300.00 196.00,300.00
             196.00,300.00 232.00,300.00 232.00,300.00
             232.00,300.00 249.00,301.00 249.00,301.00 Z
           M 0.00,300.00
           C 0.00,300.00 0.00,350.00 0.00,350.00
             6.13,347.10 12.12,339.88 17.00,335.00
             17.00,335.00 38.00,314.00 38.00,314.00
             42.33,309.67 47.35,305.60 50.00,300.00
             50.00,300.00 0.00,300.00 0.00,300.00 Z
           M 399.00,304.00
           C 399.00,304.00 374.75,352.00 374.75,352.00
             374.75,352.00 351.00,400.00 351.00,400.00
             351.00,400.00 400.00,400.00 400.00,400.00
             400.00,400.00 400.00,334.00 400.00,334.00
             400.00,327.62 400.93,308.87 399.00,304.00 Z
           M 0.00,351.00
           C 0.00,351.00 0.00,400.00 0.00,400.00
             0.00,400.00 97.00,400.00 97.00,400.00
             92.17,394.52 75.31,387.41 68.00,383.75
             68.00,383.75 26.00,362.75 26.00,362.75
             18.68,359.09 7.56,352.78 0.00,351.00 Z" />
</svg>
