<?xml version="1.0" standalone="no"?>
<!DOCTYPE svg PUBLIC "-//W3C//DTD SVG 20010904//EN"
 "http://www.w3.org/TR/2001/REC-SVG-20010904/DTD/svg10.dtd">
<svg version="1.0" xmlns="http://www.w3.org/2000/svg"
 width="300.000000pt" height="300.000000pt" viewBox="0 0 300.000000 300.000000"
 preserveAspectRatio="xMidYMid meet">
<metadata>
Created by potrace 1.10, written by Peter Selinger 2001-2011
</metadata>
<g transform="translate(0.000000,300.000000) scale(0.100000,-0.100000)"
fill="#000000" stroke="none">
<path d="M545 2450 c170 -170 313 -310 317 -310 5 0 8 138 8 307 l0 308 313
-313 312 -312 318 0 317 0 0 317 0 318 -315 -315 -315 -315 0 313 0 312 -632
0 -633 0 310 -310z m305 14 l0 -275 -23 18 c-52 41 -517 509 -517 521 0 9 61
12 270 12 l270 0 0 -276z m622 199 c2 -114 -1 -455 -4 -459 -2 -2 -123 116
-268 261 l-265 265 268 0 267 0 2 -67z m629 -243 l2 -265 -91 0 c-51 0 -172 1
-269 3 l-178 2 265 264 c145 146 265 264 267 263 1 -2 3 -122 4 -267z"/>
<path d="M2447 2452 c-169 -169 -307 -310 -307 -315 0 -4 138 -7 307 -7 l308
0 -313 -313 -312 -312 0 -318 0 -317 317 0 318 0 -315 315 -315 315 313 0 312
0 0 630 c0 347 -1 630 -3 630 -1 0 -140 -138 -310 -308z m293 -27 l0 -275
-275 0 c-151 0 -275 3 -275 7 0 10 533 543 543 543 4 0 7 -124 7 -275z m-10
-631 c0 -142 -3 -260 -6 -263 -7 -7 -420 -9 -484 -3 l-42 4 263 264 c145 145
265 262 267 260 2 -2 3 -120 2 -262z m-300 -629 c145 -146 260 -265 255 -265
-48 -2 -520 1 -521 3 -6 6 -11 527 -5 527 3 0 125 -119 271 -265z"/>
<path d="M550 1815 l315 -315 -313 0 -312 0 0 -632 0 -633 310 310 c170 170
310 313 310 317 0 5 -138 8 -307 8 l-308 0 313 313 312 312 0 318 0 317 -317
0 -318 0 315 -315z m292 47 c2 -130 2 -250 0 -266 -3 -28 -19 -14 -268 235
-246 246 -263 264 -238 269 15 3 134 4 265 2 l238 -3 3 -237z m-42 -395 c0 -1
-119 -121 -265 -267 l-265 -265 0 268 0 267 265 0 c146 0 265 -1 265 -3z m10
-624 c0 -8 -535 -543 -544 -543 -3 0 -6 124 -6 275 l0 275 275 0 c151 0 275
-3 275 -7z"/>
<path d="M1339 1658 l-155 -158 158 -158 158 -159 159 159 159 159 -161 159
c-88 88 -161 159 -161 158 -1 0 -71 -72 -157 -160z m306 -18 l139 -141 -141
-141 -142 -142 -43 40 c-24 21 -88 85 -143 142 l-99 102 139 140 c77 77 142
140 145 140 3 0 68 -63 145 -140z"/>
<path d="M870 553 l0 -318 315 315 315 315 0 -313 0 -312 632 0 633 0 -310
310 c-170 171 -313 310 -317 310 -5 0 -8 -138 -8 -307 l0 -308 -313 313 -312
312 -318 0 -317 0 0 -317z m556 284 c2 -2 -116 -122 -261 -267 -213 -213 -265
-260 -264 -240 0 14 0 113 0 220 -1 107 -2 218 -1 245 l0 50 262 -3 c144 -1
263 -3 264 -5z m1006 -294 c147 -148 268 -271 268 -275 0 -5 -124 -8 -275 -8
l-275 0 0 275 c0 151 3 275 7 275 4 0 127 -120 275 -267z m-376 -270 c-2 -3
-295 -5 -468 -3 l-58 0 0 267 0 268 265 -265 c145 -145 263 -265 261 -267z"/>
</g>
</svg>
